<?xml version="1.0" encoding="UTF-8" standalone="no"?>
<!DOCTYPE svg PUBLIC "-//W3C//DTD SVG 1.1//EN" "http://www.w3.org/Graphics/SVG/1.1/DTD/svg11.dtd">
<svg width="100%" height="100%" viewBox="0 0 1080 1080" version="1.1" xmlns="http://www.w3.org/2000/svg" xmlns:xlink="http://www.w3.org/1999/xlink" xml:space="preserve" xmlns:serif="http://www.serif.com/" style="fill-rule:evenodd;clip-rule:evenodd;stroke-linejoin:round;stroke-miterlimit:2;">
    <g transform="matrix(3.33849,0,0,3.33849,22.9521,0)">
        <path id="path9" d="M36.218,69.611L39.763,69.611L51.161,70.37L68.13,71.383L75.728,71.636L89.151,71.636L100.042,71.383L130.941,70.117L142.085,69.864L165.386,69.864L176.783,70.37L198.058,71.636L204.643,71.889L229.716,71.889L244.153,71.383L253.777,70.876L262.135,70.623L267.201,70.37L267.454,83.786L267.96,97.708L268.467,119.73L268.973,127.071L270.493,140.993L273.026,157.194L275.812,173.394L277.585,183.519L279.104,191.619L279.611,196.682L279.358,199.973L278.344,202.757L275.812,206.807L272.773,210.351L268.973,214.148L266.947,215.92L263.908,218.451L261.122,220.729L256.816,224.02L253.777,226.298L250.991,228.323L246.939,231.361L239.847,236.423L234.782,239.714L228.703,243.258L223.385,246.295L217.053,249.839L206.416,255.408L202.11,257.686L187.42,265.027L182.102,267.558L178.049,269.583L169.185,273.887L162.6,276.924L156.268,279.709L155.508,279.962L153.482,279.962L150.189,278.949L143.098,276.165L137.273,273.633L129.421,270.09L126.889,268.824L121.063,266.04L114.985,263.002L109.413,259.964L100.802,255.408L95.483,252.371L89.658,249.08L82.566,244.777L75.221,240.473L69.143,236.676L62.811,232.88L57.239,229.336L50.654,225.286L46.349,222.248L42.296,219.21L39.257,216.426L36.724,213.642L34.445,209.845L32.925,205.541L30.899,195.669L30.392,189.847L30.392,180.735L30.899,173.9L33.432,158.459L34.698,151.625L36.218,141.753L36.978,133.399L37.231,125.806L37.231,108.34L36.724,85.558L36.218,69.611Z" style="fill:rgb(34,50,150);fill-rule:nonzero;"/>
        <path id="path11" d="M41.03,74.42L44.576,74.42L58.506,75.433L74.715,75.939L89.151,75.939L103.081,75.686L121.823,74.926L141.578,74.42L164.879,74.42L177.796,74.926L185.394,75.433L200.084,76.192L207.935,76.445L225.158,76.445L246.686,75.686L258.843,75.18L262.642,75.18L262.895,75.433L263.401,96.949L264.161,121.249L264.668,128.843L265.934,140.487L266.947,147.068L266.947,148.081L259.602,148.334L193.752,148.334L191.219,148.081L190.966,147.828L190.966,145.043L191.726,144.537L193.499,144.537L194.765,146.815L194.765,147.322L196.538,146.309L197.045,146.309L196.285,144.031L196.285,142.512L197.551,141.5L198.817,142.006L199.831,143.018L201.35,142.765L201.857,142.259L201.857,140.993L200.844,140.487L200.084,139.728L200.084,138.462L201.097,137.703L203.123,138.462L204.389,138.209L204.896,136.69L202.11,135.171L202.363,132.893L202.87,132.387L205.909,132.64L206.162,130.109L202.87,129.856L202.617,129.349L202.617,127.831L204.896,127.071L205.402,126.818L205.149,125.046L204.896,124.793L203.123,125.046L202.11,125.299L200.844,124.034L200.59,123.021L201.857,121.755L202.617,121.249L202.617,119.984L202.11,119.224L200.844,119.224L200.084,120.237L199.071,120.49L197.804,119.73L197.551,118.212L198.817,116.946L198.564,115.933L197.551,115.174L196.538,115.174L196.031,116.44L195.525,117.452L193.752,117.199L192.739,116.44L192.992,114.415L193.246,113.402L192.232,112.896L190.966,113.149L190.206,115.68L189.953,115.933L188.18,115.933L187.674,115.174L187.674,112.643L185.141,113.149L185.394,115.174L184.634,116.44L182.861,116.693L181.595,115.174L181.089,114.162L179.822,114.415L179.062,115.427L180.075,117.199L180.075,118.465L178.809,119.477L177.543,119.224L176.023,117.959L175.01,118.212L174.25,118.971L174.503,119.984L175.77,120.743L176.023,122.515L175.517,123.274L173.997,123.274L173.237,122.768L171.718,122.768L171.211,124.793L172.984,125.299L173.997,126.312L173.997,128.084L173.49,128.59L170.451,128.843L169.945,130.109L170.198,131.374L173.237,131.374L173.744,131.881L173.744,132.893L170.704,133.906L170.198,133.906L170.704,135.931L171.718,136.184L172.984,135.678L174.25,135.678L175.01,136.437L175.263,138.209L173.744,139.475L172.984,139.728L173.49,141.246L174.757,141.753L176.53,140.234L177.796,140.487L178.556,141.5L178.303,142.765L177.289,143.778L177.543,145.043L178.303,145.55L179.316,145.297L180.835,143.525L182.608,143.778L183.115,144.79L183.115,147.575L183.621,148.081L183.368,148.334L124.103,148.334L119.544,148.081L119.544,144.79L120.05,144.537L122.076,144.537L123.09,146.815L124.609,146.562L125.622,146.309L124.862,144.537L124.609,144.031L124.609,142.512L125.876,141.5L127.142,142.006L128.408,143.018L129.675,142.765L130.434,142.259L130.181,141.246L128.915,140.234L128.661,139.728L128.661,138.209L128.915,137.956L130.434,137.956L131.447,138.462L132.714,138.462L133.22,137.45L133.22,136.437L130.688,135.171L130.688,133.399L130.941,132.64L132.714,132.387L134.487,132.64L134.487,130.362L131.447,129.856L130.941,129.096L131.194,127.831L133.727,126.818L133.727,125.299L133.474,124.793L129.928,125.046L129.168,123.781L129.168,122.515L130.941,121.249L130.688,119.477L130.434,119.224L129.168,119.224L128.155,120.237L126.635,120.237L126.129,119.477L126.129,118.212L127.142,117.199L126.889,115.933L126.382,115.427L125.116,115.427L124.356,116.44L123.849,117.452L122.076,117.199L121.063,116.44L121.57,113.402L120.81,112.896L119.544,113.149L118.277,115.933L116.758,115.933L116.251,115.427L115.998,114.415L115.998,112.643L113.719,112.896L113.465,113.908L113.465,116.187L112.452,116.693L110.933,116.44L110.173,115.427L109.666,114.415L107.893,114.668L107.64,115.933L108.4,116.946L108.4,118.465L107.133,119.477L105.867,119.224L105.361,118.212L103.841,117.959L103.081,118.212L102.828,119.984L104.348,120.996L104.348,122.768L103.588,123.527L102.068,123.021L100.295,122.768L100.042,123.274L100.042,124.793L102.321,125.806L102.321,128.084L102.068,128.59L99.029,128.843L98.522,129.096L98.522,130.868L99.282,131.374L101.815,131.374L102.068,132.893L99.789,133.653L99.029,134.159L99.282,135.931L100.295,136.184L101.308,135.678L103.081,135.931L103.841,137.45L103.588,138.462L101.562,139.728L101.815,140.993L102.068,141.753L103.588,141.5L105.107,139.981L106.374,140.487L106.88,140.993L106.88,142.512L105.614,144.031L105.867,145.043L107.64,145.55L109.16,143.525L110.679,143.525L111.186,143.778L111.439,147.575L111.946,147.828L111.946,148.334L41.283,148.334L40.017,148.081L40.27,145.297L41.283,136.69L41.536,132.64L41.536,95.936L41.03,78.977L41.03,74.42Z" style="fill:rgb(176,220,248);fill-rule:nonzero;"/>
        <path id="path13" d="M41.536,195.416L243.646,195.416L274.799,195.669L275.052,195.923L275.052,198.96L274.039,201.491L272.266,204.276L269.227,207.82L267.454,209.592L265.428,211.363L262.895,213.642L259.349,216.426L255.55,219.464L245.926,226.551L241.873,229.589L236.048,233.639L231.236,236.676L225.664,239.967L219.332,243.511L211.988,247.561L204.643,251.358L199.831,253.889L193.246,257.18L188.433,259.711L184.128,261.736L182.355,262.749L181.342,262.496L179.316,259.205L175.77,253.13L172.731,247.814L171.971,246.295L172.224,245.536L178.303,243.511L182.355,241.739L186.154,239.714L189.7,236.93L191.219,234.905L191.726,233.639L191.473,231.614L190.206,229.842L187.674,228.323L183.874,226.804L177.543,225.286L170.198,224.273L158.801,223.261L157.281,220.982L157.534,219.97L161.587,217.439L161.84,217.185L161.84,213.642L161.08,212.629L158.041,211.617L155.508,209.845L154.495,209.085L152.722,209.085L151.203,210.098L149.683,211.363L145.124,212.882L144.871,213.895L144.871,215.92L145.377,217.185L147.15,218.704L149.43,219.97L149.176,221.489L148.163,223.261L135.247,224.526L128.408,225.792L123.09,227.564L120.557,229.083L119.29,230.348L118.277,232.373L118.531,234.905L120.05,237.183L122.583,239.461L126.129,241.486L128.661,242.752L133.22,244.523L136.513,245.536L136.766,246.295L132.207,255.661L130.181,259.711L128.155,263.508L127.142,264.014L121.823,261.483L117.011,258.952L110.173,255.408L107.133,253.636L103.588,251.864L100.042,249.839L94.217,246.549L88.138,243.005L83.833,240.473L77.248,236.423L71.676,233.133L66.863,230.095L61.038,226.551L55.466,223.007L51.667,220.476L47.362,217.439L44.069,214.654L41.03,211.617L39.257,208.832L37.991,206.301L36.471,200.985L35.711,197.441L35.711,195.669L41.536,195.416Z" style="fill:rgb(176,220,248);fill-rule:nonzero;"/>
        <path id="path15" d="M21.275,267.558L23.807,268.318L31.659,270.343L44.069,273.38L54.453,275.658L63.064,277.43L75.475,279.709L90.164,281.987L109.413,284.265L133.727,286.037L141.325,286.29L169.438,286.29L177.289,286.037L194.512,284.771L204.136,284.012L218.573,282.24L227.437,280.974L239.594,278.949L252.511,276.418L261.882,274.393L274.545,271.355L286.196,268.318L288.982,267.558L288.729,269.583L287.209,277.937L286.956,278.443L288.729,278.696L292.021,279.962L295.314,282.24L295.82,282.493L297.593,282.493L300.886,281.48L305.444,279.709L307.471,279.709L308.99,280.721L309.75,281.987L309.75,285.024L307.977,290.087L306.204,294.39L305.951,297.681L306.711,304.262L306.964,307.553L306.964,310.844L306.204,312.109L304.938,312.869L303.165,312.869L296.327,311.35L291.008,310.59L288.475,310.59L285.943,311.603L282.65,313.881L281.13,314.387L278.851,312.362L277.585,310.59L274.799,311.097L268.72,312.362L256.563,314.64L244.406,316.665L230.73,318.691L216.04,320.462L201.857,321.728L193.246,322.487L180.075,323.247L170.958,323.5L135.5,323.5L126.129,323.247L111.692,322.234L96.749,320.969L79.527,318.944L61.038,316.159L48.628,313.881L35.964,311.35L32.925,310.59L32.165,310.59L31.152,312.109L29.886,313.628L29.126,314.134L27.353,313.881L23.048,311.097L21.021,310.59L18.235,310.59L13.423,311.35L6.332,312.869L4.306,312.615L3.293,311.603L3.039,311.097L3.039,306.54L3.546,301.478L3.799,300.212L3.799,294.643L0.507,286.29L0,283.759L0.253,281.734L1.773,279.962L3.546,279.455L7.345,280.721L11.144,282.24L12.41,282.493L14.183,282.493L17.982,279.962L21.021,278.696L23.048,278.443L21.528,270.596L21.275,267.558ZM25.834,272.621L26.087,274.646L27.86,283.252L29.379,290.846L31.406,300.718L32.419,306.034L32.925,306.793L40.523,308.565L46.855,309.831L56.986,311.603L66.104,313.122L79.527,315.147L96.496,317.172L113.972,318.691L125.876,319.45L137.273,319.956L169.945,319.956L186.407,319.197L197.045,318.437L214.267,316.919L232.756,314.64L248.205,312.362L258.336,310.59L271.506,308.059L277.078,306.793L277.585,306.54L282.143,283.759L284.423,273.127L284.423,272.621L281.384,273.38L272.773,275.658L259.856,278.696L246.179,281.48L233.262,283.759L219.839,285.784L203.123,287.809L190.966,288.821L180.075,289.581L174.503,289.834L136.006,289.834L127.648,289.327L113.465,288.315L103.334,287.302L87.378,285.277L77.501,283.759L71.422,282.746L59.265,280.468L49.641,278.443L39.763,276.165L27.606,273.127L25.834,272.621ZM22.288,281.987L18.489,284.012L15.956,285.784L14.436,286.29L11.397,286.037L7.598,285.024L4.052,283.506L3.546,283.506L4.306,285.784L7.598,294.137L7.598,299.2L6.332,309.072L8.105,308.818L12.157,307.806L17.222,307.047L22.541,307.047L25.327,308.059L27.86,310.084L28.62,310.084L28.62,305.528L26.34,295.149L24.314,286.037L23.301,282.24L22.288,281.987ZM286.702,281.987L285.689,285.784L282.144,301.731L281.13,306.54L281.13,309.831L281.637,310.084L284.676,308.059L287.462,307.047L293.034,307.047L298.859,308.059L303.165,309.072L303.165,306.54L302.405,300.212L302.405,293.631L303.418,291.353L304.938,287.556L306.204,284.265L306.204,283.506L303.925,284.265L299.619,285.784L296.833,286.29L294.807,286.037L292.781,285.024L289.995,283.252L287.462,281.987L286.702,281.987Z" style="fill:rgb(37,54,152);fill-rule:nonzero;"/>
        <path id="path17" d="M149.176,80.242L151.456,80.242L151.962,80.748L152.216,84.039L152.469,84.545L154.748,84.799L155.508,82.267L156.015,80.748L156.268,80.495L158.294,80.495L159.561,81.255L159.307,83.28L158.801,84.545L158.801,85.811L160.32,86.317L162.093,86.824L164.119,83.786L165.132,83.533L167.412,85.305L166.905,86.57L165.386,88.595L165.892,89.861L166.905,90.874L168.172,90.367L169.691,89.102L171.211,89.102L172.477,90.621L172.224,92.139L169.691,94.164L169.945,95.683L170.704,96.949L172.224,97.202L174.25,96.442L175.263,96.696L176.276,98.974L176.276,99.733L173.49,100.746L172.224,101.505L172.477,103.277L172.984,103.53L176.276,103.783L176.783,104.29L177.036,106.315L176.276,107.58L175.263,107.833L172.224,107.833L171.464,109.858L171.971,111.124L175.01,112.643L175.263,112.896L175.01,114.668L173.997,115.933L172.477,115.933L170.451,114.921L169.185,114.668L168.678,115.933L168.678,117.199L171.464,119.224L171.211,120.49L169.691,122.262L168.172,122.009L166.146,120.237L164.373,120.49L163.36,120.996L163.613,123.021L164.626,124.793L164.373,126.059L162.346,127.324L161.587,127.577L160.574,126.059L159.561,124.034L158.294,123.781L156.268,124.287L156.268,128.843L154.748,129.349L152.975,129.349L152.469,128.337L151.962,125.046L151.709,124.793L149.683,124.54L148.923,128.084L148.417,128.843L146.137,128.59L145.124,128.084L145.124,126.059L145.377,123.527L143.351,122.515L142.338,122.262L141.832,123.527L140.059,125.552L138.539,125.046L137.273,124.287L137.526,122.515L139.046,120.743L139.046,119.477L137.779,118.212L136.26,118.465L134.233,120.237L132.967,120.237L131.701,118.212L131.954,116.946L134.74,115.174L134.487,113.402L133.474,112.137L131.701,112.137L130.434,112.643L128.915,112.643L128.155,111.124L128.155,109.605L128.915,108.846L132.207,108.086L132.207,106.315L131.194,106.061L128.915,106.061L127.648,104.796L127.648,103.024L128.155,102.264L132.207,102.011L132.714,101.252L132.967,98.974L131.701,97.961L129.421,96.949L129.421,95.43L130.434,93.911L131.447,93.658L133.98,94.924L134.993,94.671L136.006,93.152L135.753,92.139L133.22,89.861L133.474,88.849L134.993,87.33L136.513,87.583L138.286,89.355L139.552,89.355L141.325,88.089L141.072,86.57L139.805,84.545L140.059,83.28L141.832,82.267L143.098,82.267L144.871,85.305L145.124,85.558L147.404,85.305L148.163,84.799L148.163,82.773L147.91,81.002L149.176,80.242Z" style="fill:rgb(176,220,248);fill-rule:nonzero;"/>
        <path id="path19" d="M73.448,153.65L89.151,153.65L89.658,153.903L89.911,157.447L90.164,175.419L90.924,177.697L91.937,178.71L92.697,178.963L94.723,178.963L95.99,178.457L97.003,176.685L97.256,175.166L97.509,153.65L111.946,153.65L112.199,153.903L112.199,180.228L110.933,183.266L109.16,186.05L106.88,188.329L104.094,190.101L102.068,191.113L97.762,192.379L93.963,192.885L90.418,192.885L85.605,192.126L82.06,190.86L79.02,189.088L76.994,187.316L74.715,184.025L73.448,180.988L73.195,179.216L73.195,157.447L73.448,153.65Z" style="fill:rgb(176,220,248);fill-rule:nonzero;"/>
        <path id="path21" d="M200.084,151.119L215.28,151.119L215.533,159.978L215.533,166.306L219.079,165.041L223.131,163.522L225.664,163.016L227.69,163.269L229.97,164.281L231.996,166.053L233.516,168.331L234.022,170.103L234.022,191.366L233.262,191.872L220.092,191.872L218.826,191.366L218.573,175.166L215.533,175.166L215.533,179.722L215.28,191.619L200.084,191.619L199.831,191.366L199.831,151.372L200.084,151.119Z" style="fill:rgb(176,220,248);fill-rule:nonzero;"/>
        <path id="path23" d="M140.565,246.549L148.923,247.561L160.067,247.561L166.652,246.802L168.425,246.802L171.717,252.371L175.517,258.699L178.049,263.255L178.303,264.521L173.997,266.799L166.905,270.09L158.294,274.14L155.255,275.405L152.975,275.405L148.163,273.633L140.565,270.343L131.194,266.04L131.447,263.761L133.98,258.952L139.046,248.827L140.312,246.802L140.565,246.549Z" style="fill:rgb(176,220,248);fill-rule:nonzero;"/>
        <path id="path25" d="M157.788,163.775L163.106,164.281L166.146,165.547L168.172,167.066L170.198,169.344L171.971,173.141L172.731,176.685L172.731,179.722L155.002,179.975L154.495,180.228L154.495,182.254L155.255,183.013L157.281,183.013L159.054,182.254L159.307,182L162.6,181.747L172.224,181.747L171.971,184.025L170.704,186.304L168.172,188.835L164.119,190.86L161.333,191.619L159.561,191.872L153.482,191.872L150.189,191.366L146.644,189.847L143.604,187.569L141.325,184.532L140.312,182.254L140.059,180.735L140.059,176.432L140.818,172.888L142.591,169.597L145.124,167.066L147.657,165.547L151.203,164.281L152.975,164.028L157.788,163.775Z" style="fill:rgb(176,220,248);fill-rule:nonzero;"/>
        <path id="path27" d="M149.176,80.242L151.456,80.242L151.962,80.748L152.216,84.039L152.469,84.545L154.748,84.799L155.508,82.267L156.015,80.748L156.268,80.495L158.294,80.495L159.561,81.255L159.307,83.28L158.801,84.545L158.801,85.811L160.32,86.317L162.093,86.824L164.119,83.786L165.132,83.533L167.412,85.305L166.905,86.57L165.386,88.595L165.892,89.861L166.905,90.874L168.172,90.367L169.691,89.102L171.211,89.102L172.477,90.621L172.224,92.139L169.691,94.164L169.945,95.683L170.704,96.949L172.224,97.202L174.25,96.442L175.263,96.696L176.276,98.974L176.276,99.733L173.49,100.746L172.224,101.505L172.477,103.277L172.984,103.53L176.276,103.783L176.783,104.29L177.036,106.315L176.276,107.58L175.263,107.833L172.224,107.833L171.464,109.858L171.971,111.124L175.01,112.643L175.263,112.896L175.01,114.668L173.997,115.933L172.477,115.933L170.451,114.921L169.185,114.668L168.678,115.933L168.678,117.199L171.464,119.224L171.211,120.49L169.691,122.262L168.172,122.009L166.146,120.237L164.373,120.49L163.36,120.996L163.613,123.021L164.626,124.793L164.373,126.059L162.346,127.324L161.587,127.577L160.574,126.059L159.561,124.034L158.294,123.781L156.268,124.287L156.268,128.843L154.748,129.349L152.975,129.349L152.469,128.337L151.962,125.046L151.709,124.793L149.683,124.54L148.923,128.084L148.417,128.843L146.137,128.59L145.124,128.084L145.124,126.059L145.377,123.527L143.351,122.515L142.338,122.262L141.832,123.527L140.059,125.552L138.539,125.046L137.273,124.287L137.526,122.515L139.046,120.743L139.046,119.477L137.779,118.212L136.26,118.465L134.233,120.237L132.967,120.237L131.701,118.212L131.954,116.946L134.74,115.174L134.487,113.402L133.474,112.137L131.701,112.137L130.434,112.643L128.915,112.643L128.155,111.124L128.155,109.605L128.915,108.846L132.207,108.086L132.207,106.315L131.194,106.061L128.915,106.061L127.648,104.796L127.648,103.024L128.155,102.264L132.207,102.011L132.714,101.252L132.967,98.974L131.701,97.961L129.421,96.949L129.421,95.43L130.434,93.911L131.447,93.658L133.98,94.924L134.993,94.671L136.006,93.152L135.753,92.139L133.22,89.861L133.474,88.849L134.993,87.33L136.513,87.583L138.286,89.355L139.552,89.355L141.325,88.089L141.072,86.57L139.805,84.545L140.059,83.28L141.832,82.267L143.098,82.267L144.871,85.305L145.124,85.558L147.404,85.305L148.163,84.799L148.163,82.773L147.91,81.002L149.176,80.242ZM149.683,87.836L147.15,88.342L144.111,89.608L141.325,91.633L140.059,92.646L138.033,95.177L136.766,97.455L135.753,99.986L135.247,102.518L135.247,107.327L136.26,111.124L138.033,114.415L141.072,117.705L143.858,119.73L147.15,121.249L149.176,121.755L155.002,121.755L159.054,120.49L161.84,118.971L164.626,116.693L166.905,113.655L168.172,110.871L168.932,108.593L169.185,106.821L169.185,102.518L168.172,98.468L166.652,95.43L164.626,92.899L162.346,90.874L159.814,89.355L157.281,88.342L154.242,87.836L149.683,87.836Z" style="fill:rgb(34,50,150);fill-rule:nonzero;"/>
        <path id="path29" d="M118.784,155.675L132.714,155.675L133.22,163.775L137.779,165.041L138.033,166.306L138.033,171.875L137.779,173.141L133.727,175.166L133.474,191.619L118.784,191.619L118.531,175.672L114.732,174.407L114.478,174.153L114.225,166.053L115.491,165.294L118.531,163.775L118.784,155.675Z" style="fill:rgb(176,220,248);fill-rule:nonzero;"/>
        <path id="path31" d="M187.927,162.763L190.713,162.763L194.259,163.269L197.804,164.281L198.058,164.534L198.058,170.103L197.804,174.153L192.992,173.9L190.966,174.66L190.206,174.913L189.7,176.432L189.7,178.457L190.46,179.722L192.232,180.228L195.778,179.975L198.058,179.722L198.058,188.076L196.538,189.847L193.752,191.366L190.966,191.872L187.927,191.872L184.888,191.366L181.342,189.594L178.809,187.569L177.289,185.797L175.517,182.507L174.757,179.469L174.757,175.672L175.517,172.635L177.289,169.344L180.075,166.306L182.608,164.534L185.647,163.269L187.927,162.763Z" style="fill:rgb(176,220,248);fill-rule:nonzero;"/>
        <path id="path33" d="M186.914,117.959L189.193,117.959L192.739,118.718L195.525,120.237L197.298,121.755L199.071,124.287L200.084,126.818L200.59,129.856L200.337,133.399L199.577,135.931L197.804,138.715L196.031,140.487L192.992,142.259L189.446,143.272L186.66,143.272L183.874,142.765L180.835,141.246L177.796,138.209L176.53,136.184L175.517,133.399L175.517,127.831L176.53,125.046L178.049,122.768L179.822,120.743L182.608,118.971L185.141,118.212L186.914,117.959Z" style="fill:rgb(176,220,248);fill-rule:nonzero;"/>
        <path id="path35" d="M113.465,118.212L119.29,118.212L122.33,119.224L124.862,120.996L126.635,122.768L128.408,126.312L128.915,128.843L128.915,131.881L128.155,135.678L126.129,138.715L124.356,140.487L121.823,142.006L119.037,143.018L117.771,143.272L115.491,143.272L112.452,142.765L109.413,141.246L106.88,138.968L105.361,136.69L104.348,134.412L103.841,132.387L103.841,128.59L104.854,125.299L106.374,122.768L108.906,120.237L111.692,118.718L113.465,118.212Z" style="fill:rgb(176,220,248);fill-rule:nonzero;"/>
        <path id="path37" d="M149.683,87.836L154.242,87.836L157.281,88.342L160.32,89.608L162.6,91.127L165.132,93.405L166.905,95.936L168.172,98.468L169.185,102.518L169.185,106.821L168.678,109.352L167.412,112.643L165.639,115.427L163.866,117.452L160.574,119.73L157.028,121.249L155.002,121.755L149.176,121.755L145.884,120.743L142.591,118.971L139.552,116.187L137.526,113.655L136.006,110.365L135.247,107.327L135.247,102.518L136.26,98.468L137.526,95.936L139.299,93.658L140.565,92.139L144.111,89.608L147.15,88.342L149.683,87.836ZM149.936,91.38L146.644,92.392L144.111,93.911L141.832,95.936L140.059,98.721L139.299,100.746L139.046,102.264L139.046,107.074L139.552,109.352L140.818,111.883L142.591,114.162L144.618,115.933L148.417,117.705L151.456,118.212L153.482,118.212L156.015,117.705L158.547,116.693L161.08,114.921L163.106,112.896L165.132,108.846L165.639,106.568L165.639,103.277L165.132,100.746L164.119,98.468L162.6,95.936L160.827,94.164L158.294,92.646L155.508,91.633L153.989,91.38L149.936,91.38Z" style="fill:rgb(176,220,248);fill-rule:nonzero;"/>
        <path id="path39" d="M181.595,0L182.608,0.253L181.595,1.266L178.809,3.544L176.783,5.822L177.036,6.835L180.329,11.644L182.102,13.922L183.368,14.175L184.128,13.416L185.394,10.125L188.687,1.519L189.193,0.253L190.206,0.759L191.979,5.822L195.018,13.922L195.525,14.175L198.058,14.175L198.058,1.772L196.791,1.013L196.791,0.253L203.123,0.253L203.123,0.759L201.35,1.266L201.35,13.922L203.63,13.922L205.149,13.416L206.162,12.403L207.429,9.872L207.682,9.872L207.682,12.15L207.429,14.682L198.311,14.935L189.953,14.682L190.713,14.175L191.473,14.175L190.46,11.138L190.206,10.885L186.407,10.885L185.647,13.163L185.647,13.922L187.167,14.428L187.167,14.682L176.023,14.682L176.023,14.428L177.289,14.175L177.036,12.91L174.503,8.86L174.25,8.1L173.744,8.1L173.997,10.125L173.997,14.175L175.263,14.428L175.263,14.682L168.932,14.682L169.438,14.175L170.198,13.922L170.198,1.266L168.932,0.759L169.185,0.253L175.01,0.253L174.25,1.519L173.997,6.581L176.023,4.809L178.303,2.784L179.062,1.519L178.049,1.013L177.796,0.253L181.595,0ZM188.18,5.569L186.914,8.86L186.914,9.872L189.193,10.125L189.953,9.872L189.7,8.353L188.687,5.569L188.18,5.569Z" style="fill:rgb(39,56,153);fill-rule:nonzero;"/>
        <path id="path41" d="M186.914,117.959L189.193,117.959L192.739,118.718L195.525,120.237L197.298,121.755L199.071,124.287L200.084,126.818L200.59,129.856L200.337,133.399L199.577,135.931L197.804,138.715L196.031,140.487L192.992,142.259L189.446,143.272L186.66,143.272L183.874,142.765L180.835,141.246L177.796,138.209L176.53,136.184L175.517,133.399L175.517,127.831L176.53,125.046L178.049,122.768L179.822,120.743L182.608,118.971L185.141,118.212L186.914,117.959ZM186.914,120.743L183.874,121.502L182.355,122.262L180.075,124.287L178.556,127.324L178.049,129.603L178.303,132.893L179.569,135.931L181.342,137.956L183.621,139.475L185.647,140.234L187.167,140.487L189.446,140.487L191.979,139.728L194.005,138.462L196.031,136.69L197.551,133.653L197.804,132.893L197.804,128.59L197.045,126.312L195.525,123.781L193.752,122.262L190.713,120.996L189.193,120.743L186.914,120.743Z" style="fill:rgb(185,231,248);fill-rule:nonzero;"/>
        <path id="path43" d="M113.465,118.212L119.29,118.212L122.33,119.224L124.862,120.996L126.635,122.768L128.408,126.312L128.915,128.843L128.915,131.881L128.155,135.678L126.129,138.715L124.356,140.487L121.823,142.006L119.037,143.018L117.771,143.272L115.491,143.272L112.452,142.765L109.413,141.246L106.88,138.968L105.361,136.69L104.348,134.412L103.841,132.387L103.841,128.59L104.854,125.299L106.374,122.768L108.906,120.237L111.692,118.718L113.465,118.212ZM115.238,120.743L112.199,121.502L110.173,122.768L108.4,124.54L107.133,126.818L106.627,128.843L106.627,132.387L107.64,135.171L108.653,136.69L109.919,137.956L111.946,139.475L113.972,140.234L115.491,140.487L117.771,140.487L120.05,139.981L122.583,138.462L124.862,136.184L125.876,134.412L126.382,132.387L126.382,128.843L125.369,125.806L123.596,123.527L121.823,122.009L119.29,120.996L115.238,120.743Z" style="fill:rgb(185,231,248);fill-rule:nonzero;"/>
        <path id="path45" d="M199.831,24.3L204.389,24.3L206.162,24.554L206.162,24.807L204.389,25.313L204.136,25.566L203.883,30.629L207.935,30.882L207.682,25.06L206.416,24.807L206.922,24.3L212.241,24.3L211.481,25.313L211.228,38.476L214.774,38.223L214.774,26.326L213.507,24.3L217.559,24.3L219.586,27.085L222.372,31.388L223.131,32.401L223.131,27.085L222.372,24.3L225.411,24.3L224.651,26.579L224.398,33.16L224.398,38.982L223.385,38.729L220.599,34.679L216.04,27.844L215.787,27.844L216.04,38.223L217.306,38.476L217.306,38.982L199.071,38.982L199.324,38.476L200.337,38.223L200.59,36.957L200.337,25.313L199.831,24.3ZM204.136,31.894L203.883,32.147L203.63,35.944L203.883,38.223L204.136,38.476L207.682,38.476L207.935,37.969L207.935,31.894L204.136,31.894Z" style="fill:rgb(40,57,154);fill-rule:nonzero;"/>
        <path id="path47" d="M160.827,226.804L167.159,227.058L177.036,228.07L183.115,229.336L185.647,230.348L186.914,231.614L186.66,232.626L183.115,234.398L176.783,235.917L169.691,236.93L166.652,236.93L165.132,234.651L161.587,228.576L160.827,226.804Z" style="fill:rgb(176,220,248);fill-rule:nonzero;"/>
        <path id="path49" d="M253.017,289.074L254.537,289.074L255.044,290.087L253.777,291.099L252.258,291.606L251.498,295.149L251.244,299.706L252.258,299.706L253.017,297.175L253.777,294.896L255.044,293.631L256.816,293.378L257.576,294.137L259.096,294.137L259.602,292.871L261.122,292.618L261.882,293.631L263.148,292.365L264.921,292.618L265.174,292.871L265.174,294.643L264.415,297.175L264.668,297.934L265.934,297.428L266.694,293.631L268.214,291.859L269.48,291.099L270.746,291.099L271.506,292.112L271.506,293.378L269.227,293.124L268.467,293.631L268.214,294.39L268.214,297.175L268.467,297.681L269.733,297.175L271.506,295.149L272.013,293.124L273.279,291.099L274.545,290.34L276.065,290.593L277.078,291.606L276.825,292.871L275.812,294.137L273.532,295.403L273.532,296.415L275.052,296.162L276.065,295.403L277.078,295.403L276.572,296.668L273.786,298.693L272.519,298.693L271.759,297.175L271,297.428L270.24,298.693L268.72,299.453L266.947,299.453L266.441,298.693L265.174,298.946L264.161,300.212L262.895,300.212L262.642,299.959L262.388,294.643L261.629,295.656L261.122,299.453L260.362,300.718L259.349,300.971L259.096,299.959L259.096,295.403L258.083,295.403L256.816,297.428L255.044,297.681L255.044,299.453L256.31,299.2L256.816,298.187L258.083,298.187L257.83,299.453L256.057,301.225L255.044,301.731L253.777,301.478L252.258,300.212L251.751,301.478L250.738,302.237L249.472,301.984L249.218,301.478L247.952,301.731L246.939,302.743L245.673,302.743L245.166,301.478L245.166,298.946L245.673,293.631L246.939,291.099L248.965,289.581L250.485,289.581L251.498,290.087L253.017,289.074ZM249.725,291.099L248.205,291.859L246.939,298.187L246.939,300.465L247.952,300.718L249.218,299.453L249.978,293.124L250.231,291.099L249.725,291.099ZM274.039,292.112L273.786,292.365L273.786,293.884L274.545,293.631L275.052,292.112L274.039,292.112ZM255.55,294.896L254.79,295.656L254.79,297.175L256.057,295.909L256.057,294.896L255.55,294.896Z" style="fill:rgb(41,58,154);fill-rule:nonzero;"/>
        <path id="path51" d="M19.755,0L21.021,0.506L23.301,7.341L23.807,9.113L24.821,7.088L26.34,3.291L27.1,0.759L27.353,0.253L32.165,0.253L31.659,1.266L30.899,1.772L30.899,12.91L31.152,13.922L33.432,14.175L34.951,11.138L37.484,4.303L39.004,0.506L40.017,0.506L43.816,11.391L45.335,14.175L45.589,14.682L39.763,14.682L41.283,13.922L41.03,12.656L40.27,10.885L36.218,10.631L35.458,13.922L36.978,14.428L36.978,14.682L26.34,14.682L27.353,13.669L27.606,2.784L25.58,8.606L24.061,12.656L23.554,14.682L22.541,14.428L18.742,3.797L18.235,2.784L18.235,8.1L18.489,13.922L19.755,14.175L19.755,14.682L15.703,14.682L15.956,14.175L17.222,13.669L17.222,1.772L15.703,0.759L15.956,0.253L19.755,0ZM37.991,5.822L36.471,9.619L36.471,9.872L38.75,10.125L40.017,9.872L39.257,7.088L38.497,5.822L37.991,5.822Z" style="fill:rgb(38,55,152);fill-rule:nonzero;"/>
        <path id="path53" d="M72.689,24.3L80.034,24.3L81.806,25.06L82.819,26.326L83.073,26.832L83.073,30.122L82.313,31.388L81.047,32.654L83.073,35.944L84.339,37.716L84.339,38.223L85.605,38.476L85.605,33.919L86.112,33.413L86.872,35.691L87.885,37.21L89.151,37.969L91.177,37.969L91.937,37.463L92.191,35.438L90.418,33.919L88.138,32.401L86.365,30.629L85.859,29.363L85.859,27.338L86.872,25.313L88.138,24.3L91.684,24.3L93.71,24.554L93.963,28.857L92.95,27.844L91.937,26.072L90.924,25.566L88.645,25.566L88.138,26.326L88.138,27.844L93.204,31.388L94.47,33.413L94.47,35.944L93.457,37.969L92.191,38.982L81.553,38.982L80.793,38.223L78.261,34.173L77.248,32.654L76.994,32.401L76.994,37.969L78.514,38.476L78.514,38.729L76.741,38.982L72.182,38.982L72.182,38.476L73.702,37.969L73.702,25.819L72.689,25.313L72.689,24.3ZM76.741,25.566L76.741,31.135L78.514,31.388L79.78,30.629L80.287,28.857L80.287,26.832L79.78,25.819L79.02,25.566L76.741,25.566Z" style="fill:rgb(41,58,155);fill-rule:nonzero;"/>
        <path id="path55" d="M120.557,0L121.063,0L124.103,8.86L125.876,13.163L126.635,14.175L128.915,14.175L128.915,3.797L128.661,1.519L127.902,0.759L127.902,0.253L135.5,0.253L137.019,1.013L138.539,3.544L138.286,5.063L136.766,6.835L136.26,6.835L137.526,8.1L139.046,9.872L139.046,11.644L137.019,14.428L136.513,14.682L121.063,14.682L121.57,14.175L122.583,14.175L121.57,11.138L121.317,10.885L117.264,10.631L117.011,12.656L116.758,13.669L118.024,14.175L118.024,14.682L113.972,14.682L115.238,13.416L117.264,8.353L118.784,4.05L120.304,0.253L120.557,0ZM132.967,1.266L132.207,1.772L132.207,6.835L133.98,6.581L134.993,5.569L135.247,4.809L135.247,2.784L134.74,1.772L132.967,1.266ZM119.544,5.569L118.024,8.606L117.771,9.872L119.797,10.125L121.063,9.872L120.557,7.594L119.797,5.569L119.544,5.569ZM132.461,7.847L132.207,8.606L132.207,13.669L132.461,13.922L134.233,13.669L135.247,12.656L135.5,12.15L135.5,9.872L134.74,8.353L133.474,7.847L132.461,7.847Z" style="fill:rgb(39,56,153);fill-rule:nonzero;"/>
        <path id="path57" d="M274.545,0.253L275.305,0.253L278.851,10.378L280.371,13.922L282.143,14.175L283.157,14.175L283.157,1.772L281.89,0.759L281.89,0.253L288.982,0.253L291.768,1.519L293.541,4.303L294.047,5.822L294.047,9.366L293.287,11.391L292.274,12.91L290.501,14.428L289.488,14.682L283.41,14.935L275.558,14.682L276.318,13.922L276.065,11.897L275.812,11.138L275.305,10.885L271.759,10.885L271,12.91L271.253,13.922L272.013,14.175L272.013,14.682L268.72,14.682L270.24,11.644L272.013,6.581L274.545,0.253ZM286.449,1.266L286.196,10.631L286.449,13.922L288.729,13.669L289.995,12.403L290.501,10.631L290.501,5.063L289.742,2.784L288.475,1.519L287.969,1.266L286.449,1.266ZM273.532,5.569L272.266,8.606L272.013,9.872L274.799,10.125L275.305,9.872L275.052,8.353L274.039,5.822L273.532,5.569Z" style="fill:rgb(39,55,153);fill-rule:nonzero;"/>
        <path id="path59" d="M149.936,91.38L153.989,91.38L157.028,92.139L160.067,93.658L162.6,95.936L164.373,98.721L165.386,101.505L165.639,103.277L165.639,106.568L164.879,109.605L163.106,112.896L160.574,115.427L158.041,116.946L155.255,117.959L153.482,118.212L149.43,117.959L146.644,116.946L144.364,115.68L141.832,113.402L139.805,110.112L139.299,108.846L139.046,107.074L139.046,102.264L139.552,99.986L140.818,97.455L142.338,95.43L144.871,93.405L147.91,91.886L149.936,91.38ZM150.443,93.405L147.657,94.164L145.631,95.177L143.604,96.949L141.832,99.733L140.818,102.771L140.818,106.568L141.325,108.593L142.845,111.63L145.377,114.162L148.417,115.68L150.696,116.187L153.735,116.187L157.534,115.174L160.32,113.149L162.093,110.871L163.106,108.846L163.613,106.821L163.613,102.771L162.6,99.48L160.574,96.696L158.041,94.671L155.255,93.658L154.242,93.405L150.443,93.405Z" style="fill:rgb(34,50,150);fill-rule:nonzero;"/>
        <path id="path61" d="M143.604,227.058L146.137,227.058L145.631,228.576L142.845,234.398L141.325,236.93L138.286,236.676L131.954,235.664L128.155,234.651L125.116,233.133L124.609,232.12L124.862,231.108L125.876,230.095L130.434,228.576L134.993,227.817L143.604,227.058Z" style="fill:rgb(176,220,248);fill-rule:nonzero;"/>
        <path id="path63" d="M225.158,294.643L225.917,294.896L225.664,297.428L224.651,296.921L223.385,296.415L221.865,297.174L221.359,299.453L223.131,299.453L223.638,298.44L224.398,298.693L224.651,301.225L223.385,301.478L222.625,300.971L221.359,300.971L220.852,301.731L220.599,304.262L224.398,304.009L225.158,301.984L225.664,301.984L226.677,303.503L227.69,303.25L228.703,301.984L228.957,300.212L228.703,299.2L226.931,299.2L227.437,298.187L228.45,297.174L229.463,297.428L230.223,298.187L231.236,297.681L232.756,296.162L233.769,296.162L234.022,297.681L231.996,298.693L231.489,299.453L231.489,301.478L232.502,304.262L233.009,305.275L234.275,305.528L234.529,304.262L233.769,302.743L233.516,301.478L234.022,299.2L234.782,297.681L235.288,297.681L235.795,296.668L237.315,295.656L238.328,295.909L238.834,296.415L239.088,298.44L237.821,297.934L236.555,297.681L235.795,299.2L235.542,301.225L235.795,302.237L237.315,301.984L238.581,301.225L239.341,301.225L239.341,298.946L240.86,296.415L241.62,295.656L243.646,295.403L244.406,296.668L244.153,298.187L241.62,300.212L241.114,301.731L242.887,301.225L243.393,300.212L244.153,299.959L244.406,300.971L243.9,301.984L241.62,303.503L240.354,303.756L239.594,302.743L239.087,301.984L237.315,303.503L236.302,303.756L235.795,306.034L234.529,307.3L233.009,307.047L231.489,306.034L229.97,303.503L229.97,302.997L228.703,304.262L227.184,305.275L225.664,305.275L224.904,305.781L223.131,306.034L216.8,306.287L216.8,305.275L218.066,304.515L218.826,301.225L219.332,297.681L219.586,296.921L218.066,297.428L217.559,298.44L217.559,301.225L217.813,302.49L216.293,302.237L215.787,301.478L215.787,298.946L216.8,296.921L218.573,295.656L219.586,295.403L223.891,295.149L225.158,294.643ZM242.38,296.921L241.367,298.187L241.62,298.946L242.887,297.428L242.887,296.921L242.38,296.921Z" style="fill:rgb(40,57,154);fill-rule:nonzero;"/>
        <path id="path65" d="M150.189,226.804L156.775,226.804L161.08,233.892L162.6,236.676L162.6,237.436L145.631,237.436L145.124,237.183L145.377,236.17L149.936,227.058L150.189,226.804Z" style="fill:rgb(176,220,248);fill-rule:nonzero;"/>
        <path id="path67" d="M88.391,0L89.658,0.506L92.95,5.316L94.723,8.1L95.23,8.353L95.23,2.531L94.976,1.519L93.71,0.759L93.963,0.253L97.762,0.253L97.762,1.013L96.243,1.266L96.243,14.682L95.736,14.935L94.47,13.669L92.697,10.885L89.151,5.822L87.632,3.797L87.632,13.922L89.151,14.175L89.151,14.682L79.02,14.682L79.78,13.922L79.527,12.15L79.274,10.885L75.221,10.885L74.462,12.656L74.208,13.922L75.475,14.175L75.475,14.682L72.182,14.682L72.689,13.416L73.702,11.644L75.475,6.328L77.754,0.506L78.767,0.506L82.313,10.378L83.833,13.922L85.099,14.175L86.619,13.922L86.872,1.772L85.605,1.266L85.099,0.253L88.391,0ZM76.994,5.316L75.475,9.366L75.475,9.872L78.261,10.125L78.767,9.872L78.007,7.088L77.248,5.316L76.994,5.316Z" style="fill:rgb(38,55,153);fill-rule:nonzero;"/>
        <path id="path69" d="M203.376,48.348L204.389,48.854L206.162,54.17L208.188,59.739L209.455,62.27L209.455,62.776L211.734,62.523L211.988,53.664L211.988,49.867L211.734,49.107L210.721,48.601L211.481,48.348L217.306,48.348L217.053,48.854L215.787,49.107L215.533,62.017L219.079,61.764L219.839,61.511L221.105,58.979L221.612,57.714L222.118,57.714L222.118,59.739L221.612,62.776L221.359,63.029L204.136,63.029L204.643,62.523L205.402,62.523L204.643,59.486L204.389,58.726L203.883,58.979L201.097,58.979L201.35,57.967L203.63,57.967L203.883,57.714L202.617,53.917L201.097,57.967L200.084,60.751L199.831,62.27L201.097,62.776L201.097,63.029L197.298,63.282L198.817,60.245L201.35,53.664L202.87,49.867L203.376,48.348Z" style="fill:rgb(43,61,156);fill-rule:nonzero;"/>
        <path id="path71" d="M140.059,0.253L145.884,0.253L146.137,0.759L144.871,1.519L144.871,12.656L145.884,13.669L147.91,13.669L148.923,12.656L149.683,10.125L149.683,1.772L148.163,0.759L148.163,0.253L159.814,0.253L159.561,1.013L158.294,1.266L158.041,2.278L158.041,13.669L161.333,13.669L162.6,12.91L164.373,9.619L164.626,9.619L164.373,11.897L164.119,14.428L163.866,14.682L153.229,14.682L153.482,14.175L154.748,13.669L154.748,1.519L153.229,1.013L151.456,1.266L150.949,2.784L150.696,11.644L149.936,13.669L148.67,14.682L148.163,14.935L143.858,14.935L142.591,14.175L141.832,12.656L141.578,11.391L141.325,5.569L141.325,3.291L141.072,1.519L140.059,0.759L140.059,0.253Z" style="fill:rgb(48,67,160);fill-rule:nonzero;"/>
        <path id="path73" d="M104.348,48.348L105.614,48.601L102.828,56.701L100.802,62.776L99.789,63.029L99.029,60.751L97.762,56.195L97.003,54.929L94.217,62.27L93.963,63.282L93.204,63.029L91.684,58.979L88.645,50.12L87.885,48.601L92.95,48.601L92.191,48.854L92.444,51.132L93.963,55.689L94.47,57.714L94.976,57.207L96.243,53.917L96.243,51.892L95.483,49.867L94.723,48.601L99.789,48.601L99.282,49.107L99.282,50.879L101.055,56.701L101.562,56.954L102.828,52.904L103.334,50.879L103.334,49.36L102.828,48.601L104.348,48.348Z" style="fill:rgb(39,56,153);fill-rule:nonzero;"/>
        <path id="path75" d="M225.664,0L226.93,0.253L227.944,2.278L230.223,9.113L230.73,8.606L232.756,2.531L233.769,0.253L238.581,0.253L238.581,1.013L237.315,1.519L237.315,13.669L238.581,14.175L238.581,14.682L232.249,14.682L232.756,14.175L233.769,13.669L233.769,3.038L231.236,10.125L229.97,13.416L229.716,14.682L228.957,14.428L227.437,10.631L224.904,3.797L224.145,2.278L224.145,1.772L222.878,1.266L222.118,0.506L222.118,0.253L225.664,0Z" style="fill:rgb(36,53,151);fill-rule:nonzero;"/>
        <path id="path77" d="M121.317,297.428L124.103,297.681L123.849,300.212L123.596,301.225L125.116,300.212L126.129,299.2L126.129,297.681L130.181,297.934L130.181,298.693L127.395,300.212L124.862,301.984L124.356,301.984L124.862,304.262L126.635,309.325L128.155,309.578L128.915,306.793L129.675,304.768L129.675,303.503L128.915,302.996L129.168,301.984L131.701,300.465L132.714,300.971L132.967,301.984L133.98,301.478L134.74,300.971L135.753,301.225L135.753,302.996L134.74,307.047L135.753,307.047L135.5,308.059L133.22,308.818L132.714,308.565L132.714,306.287L133.474,303.25L132.714,303.503L131.701,305.528L130.434,308.818L129.421,310.337L128.915,310.59L126.129,310.59L124.609,309.325L123.09,305.528L122.583,304.009L121.823,305.781L122.33,307.806L122.076,308.059L117.771,308.059L117.518,307.553L118.277,306.793L119.29,306.287L121.317,300.465L121.57,298.693L120.05,299.453L119.29,301.731L118.024,301.478L117.771,300.718L119.037,298.187L119.797,297.681L121.317,297.428Z" style="fill:rgb(39,56,153);fill-rule:nonzero;"/>
        <path id="path79" d="M145.377,48.348L153.735,48.601L155.002,49.613L156.015,51.385L155.761,53.664L154.748,54.676L154.242,54.676L154.495,55.689L156.521,57.46L156.775,57.967L156.775,59.992L155.761,61.511L154.242,62.776L153.735,63.029L145.377,63.029L146.137,62.27L146.644,62.017L146.897,61.004L146.897,56.195L146.644,49.613L145.377,48.854L145.377,48.348ZM150.189,49.613L149.936,49.867L149.683,53.917L149.936,54.929L151.709,54.676L152.975,53.41L152.975,50.626L152.216,49.867L150.189,49.613ZM149.936,55.942L149.683,56.195L149.683,61.004L149.936,61.764L152.216,61.764L152.975,61.257L153.229,60.498L153.229,57.967L152.722,56.701L151.962,56.195L149.936,55.942Z" style="fill:rgb(40,57,154);fill-rule:nonzero;"/>
        <path id="path81" d="M172.477,296.921L173.997,296.921L174.503,298.187L173.744,298.946L171.464,299.2L170.198,303.25L169.691,306.793L169.438,307.3L170.704,306.793L172.224,304.009L173.997,301.984L177.289,301.225L178.049,301.225L177.796,302.996L177.036,305.781L176.783,308.565L176.53,310.844L174.757,312.869L172.731,313.628L170.958,313.375L169.691,311.856L169.945,310.337L170.958,309.072L171.211,307.806L168.678,309.325L164.373,309.325L163.866,308.565L163.866,306.034L165.132,303.503L166.146,302.237L168.425,301.225L169.945,298.44L171.211,297.428L172.477,296.921ZM174.757,302.997L173.744,304.009L172.984,306.034L173.237,307.3L174.503,307.3L175.263,305.528L175.517,303.25L174.757,302.997ZM167.665,302.997L166.399,304.009L165.639,306.287L165.892,307.806L167.159,307.553L168.172,305.275L168.172,303.25L167.665,302.997ZM174.25,308.565L172.224,309.831L171.464,311.097L171.971,312.109L173.49,312.109L174.503,310.844L174.757,308.565L174.25,308.565Z" style="fill:rgb(40,57,154);fill-rule:nonzero;"/>
        <path id="path83" d="M55.72,289.581L59.772,289.581L61.545,290.593L62.558,292.112L62.558,293.378L64.584,293.631L64.331,295.403L63.064,298.44L62.811,299.453L64.331,298.44L66.104,294.643L66.61,293.884L67.877,293.884L67.877,295.656L66.61,298.44L66.61,299.2L67.877,299.706L67.877,300.212L66.61,300.718L65.85,301.731L64.077,301.225L63.824,300.718L62.811,300.971L61.545,301.225L60.532,300.465L61.038,297.934L62.051,295.149L59.265,295.909L57.746,296.162L56.479,296.162L55.72,298.44L56.226,298.693L57.492,298.693L57.746,299.959L57.492,300.212L55.213,299.959L51.92,299.2L51.667,297.934L52.174,297.175L52.427,297.934L53.44,298.187L54.96,294.896L56.226,291.099L54.453,291.859L52.68,293.884L52.934,295.403L53.693,296.415L53.44,297.428L52.174,296.921L51.414,296.162L51.161,294.137L52.427,292.112L54.2,290.34L55.72,289.581ZM56.986,290.593L58.506,291.353L58.252,292.871L57.492,293.631L57.492,294.643L59.265,294.39L60.025,293.378L60.278,292.112L59.772,291.099L58.506,290.593L56.986,290.593Z" style="fill:rgb(38,54,152);fill-rule:nonzero;"/>
        <path id="path85" d="M231.489,24.3L235.542,24.3L237.061,25.06L238.834,27.085L239.847,29.616L239.847,33.919L238.834,36.451L237.061,38.476L234.782,39.235L232.502,39.235L230.223,38.729L228.957,37.716L227.437,35.185L226.93,32.907L226.93,29.869L227.944,27.085L229.463,25.313L231.489,24.3ZM233.262,25.06L231.743,25.819L230.73,27.085L230.476,28.097L230.476,35.185L231.236,37.21L232.502,38.223L234.529,38.223L235.795,37.21L236.302,35.691L236.302,27.591L235.795,26.326L234.782,25.313L233.262,25.06Z" style="fill:rgb(38,55,153);fill-rule:nonzero;"/>
        <path id="path87" d="M115.491,295.403L117.518,295.656L118.024,296.415L117.518,297.175L114.732,297.175L113.465,299.2L113.465,299.959L115.238,300.465L115.238,301.478L113.719,301.731L112.705,301.984L110.679,307.553L108.4,310.084L107.387,310.59L104.601,310.59L104.348,310.337L104.348,309.072L105.107,308.818L107.387,308.818L108.4,308.059L109.919,303.503L110.426,301.478L109.413,300.971L108.4,303.25L107.387,304.768L105.867,306.034L102.828,306.54L100.802,306.034L99.535,304.768L98.776,303.503L98.776,301.225L100.295,298.44L101.308,297.175L103.334,295.909L105.867,295.656L107.893,296.668L109.16,298.44L109.666,299.959L110.933,299.706L112.705,297.175L113.719,295.909L115.491,295.403ZM103.841,297.175L102.068,298.693L101.055,300.971L101.055,303.25L102.321,304.768L102.828,305.022L105.107,304.768L106.374,303.503L107.133,300.718L106.627,298.187L105.614,297.175L103.841,297.175Z" style="fill:rgb(40,57,154);fill-rule:nonzero;"/>
        <path id="path89" d="M258.083,24.3L262.388,24.3L263.908,25.313L265.681,27.338L266.441,29.869L266.441,33.413L265.681,35.944L263.908,38.223L262.642,38.982L261.629,39.235L258.336,39.235L256.31,38.476L254.79,36.704L253.524,33.919L253.524,29.363L255.044,26.326L257.07,24.807L258.083,24.3ZM259.856,25.06L258.336,25.819L257.323,27.085L256.816,29.11L256.816,34.173L257.323,36.451L258.336,37.716L259.349,38.223L261.122,38.223L262.388,36.957L262.895,35.438L263.148,33.16L263.148,30.122L262.642,27.085L261.882,25.819L260.362,25.06L259.856,25.06Z" style="fill:rgb(38,55,152);fill-rule:nonzero;"/>
        <path id="path91" d="M136.766,24.3L141.072,24.3L143.098,25.566L144.871,27.844L145.631,30.376L145.631,33.16L144.871,35.438L143.351,37.716L142.085,38.729L140.312,39.235L137.526,39.235L135.5,38.476L133.727,36.451L132.714,34.173L132.461,31.135L132.967,28.351L134.487,25.819L136.766,24.3ZM139.046,25.06L137.273,25.819L136.26,27.591L135.753,29.363L135.753,34.173L136.766,37.21L138.033,38.223L139.805,38.223L141.325,36.957L142.085,34.932L142.085,28.351L141.325,26.579L140.059,25.313L139.046,25.06Z" style="fill:rgb(38,55,153);fill-rule:nonzero;"/>
        <path id="path93" d="M115.238,120.743L119.29,120.996L121.823,122.009L124.356,124.287L125.622,126.565L126.382,128.843L126.382,132.387L125.622,134.918L124.103,136.943L122.33,138.715L119.29,140.234L117.771,140.487L115.491,140.487L112.452,139.728L110.173,138.209L108.906,136.943L107.893,135.678L106.88,133.399L106.627,132.387L106.627,128.843L107.387,126.059L109.16,123.781L111.186,122.009L113.719,120.996L115.238,120.743ZM114.478,122.262L111.946,123.274L109.919,125.046L108.4,127.577L107.893,130.868L108.4,133.399L109.413,135.424L110.679,136.943L113.212,138.462L114.478,138.968L117.011,139.221L119.037,138.715L121.57,137.45L122.836,136.184L124.103,134.412L124.609,132.893L124.862,129.856L124.103,126.818L122.583,124.54L120.304,122.768L118.784,122.262L114.478,122.262Z" style="fill:rgb(34,50,150);fill-rule:nonzero;"/>
        <path id="path95" d="M186.914,120.743L189.193,120.743L192.232,121.502L194.765,123.021L196.285,124.793L197.551,127.324L197.804,128.59L197.804,132.893L196.538,135.931L194.765,137.956L192.486,139.475L190.713,140.234L189.446,140.487L187.167,140.487L184.128,139.728L182.102,138.462L180.329,136.943L178.809,134.412L178.049,131.374L178.303,128.084L179.569,125.046L181.595,122.768L183.115,121.755L185.394,120.996L186.914,120.743ZM185.901,122.262L183.621,123.274L181.595,125.046L180.075,127.324L179.569,129.096L179.569,131.881L180.329,134.412L182.355,136.943L184.634,138.462L185.647,138.968L188.687,139.221L191.979,138.209L194.005,136.69L195.525,134.665L196.285,132.64L196.285,128.59L195.272,126.059L193.499,124.034L192.232,123.021L190.206,122.262L185.901,122.262Z" style="fill:rgb(34,50,150);fill-rule:nonzero;"/>
        <path id="path97" d="M188.687,48.095L191.726,48.095L193.752,48.854L195.018,48.601L195.778,48.348L195.778,53.157L193.246,50.626L191.979,49.613L189.953,49.36L188.433,50.373L187.42,51.639L187.167,52.904L187.167,58.726L187.927,61.004L189.193,62.017L191.473,62.27L192.232,61.511L192.232,59.232L191.473,57.207L191.219,56.701L196.285,56.701L196.031,57.967L195.778,58.473L195.525,61.257L194.765,62.523L193.246,63.282L188.18,63.282L186.154,62.27L184.381,60.245L183.621,58.473L183.368,56.701L183.368,54.676L184.128,52.145L185.647,49.867L187.927,48.348L188.687,48.095Z" style="fill:rgb(38,55,153);fill-rule:nonzero;"/>
        <path id="path99" d="M60.785,24.3L69.649,24.3L69.903,24.554L70.156,28.604L69.649,28.857L68.636,26.326L67.877,25.819L64.584,25.566L64.584,31.135L66.104,30.882L66.61,29.363L67.117,28.351L67.623,28.351L67.623,32.907L67.37,34.932L66.61,34.173L65.85,32.401L64.584,32.147L64.584,37.716L67.117,37.716L68.89,37.21L69.903,35.944L70.663,34.173L71.169,34.173L70.663,38.729L69.903,38.982L59.772,38.982L60.532,38.223L61.291,38.223L61.038,25.313L60.785,24.3Z" style="fill:rgb(40,57,154);fill-rule:nonzero;"/>
        <path id="path101" d="M174.25,24.3L183.621,24.3L183.874,24.554L183.874,28.857L183.115,27.844L182.102,26.072L181.595,25.819L178.303,25.566L178.303,31.135L179.822,30.376L180.582,28.351L181.089,28.351L181.089,35.185L180.329,34.426L179.822,32.907L178.303,32.147L178.303,37.716L181.089,37.716L182.861,37.21L184.381,34.173L184.888,34.173L184.634,36.451L184.128,38.729L183.874,38.982L173.49,38.982L173.49,38.476L175.01,38.223L174.757,25.313L174.25,24.3Z" style="fill:rgb(38,55,153);fill-rule:nonzero;"/>
        <path id="path103" d="M272.266,24.3L277.078,24.3L279.104,24.554L280.117,24.554L279.864,26.326L280.117,29.11L278.851,27.844L277.331,26.072L276.065,25.566L274.039,25.566L272.773,26.326L272.013,27.338L271.506,28.857L271.506,34.426L272.519,37.463L273.786,37.969L276.318,37.969L276.572,37.716L276.572,34.932L275.812,33.413L275.812,32.654L279.864,32.654L281.13,32.907L280.624,33.919L279.864,33.919L279.864,37.21L279.104,38.476L278.091,38.982L275.812,39.235L273.026,39.235L271,38.476L269.227,36.704L268.214,34.679L267.707,31.641L268.467,28.351L269.733,26.326L271.759,24.554L272.266,24.3Z" style="fill:rgb(38,55,153);fill-rule:nonzero;"/>
        <path id="path105" d="M106.374,48.348L116.251,48.601L116.504,48.854L116.758,50.626L116.758,52.651L115.998,52.145L115.238,50.626L115.238,50.12L113.719,49.867L111.186,49.867L110.933,55.182L112.452,54.423L113.465,53.41L113.972,52.145L114.478,52.398L114.225,53.917L114.225,58.979L113.465,58.726L112.199,56.448L111.186,56.195L111.186,61.764L114.225,61.764L115.491,61.511L115.998,60.245L116.758,58.726L117.264,58.726L117.264,62.776L117.011,63.029L106.627,63.029L107.387,62.27L107.64,48.854L106.374,48.854L106.374,48.348Z" style="fill:rgb(41,58,155);fill-rule:nonzero;"/>
        <path id="path107" d="M157.788,48.348L167.665,48.601L167.918,48.854L167.918,52.145L167.412,52.904L166.146,50.373L164.879,49.867L162.346,49.613L162.346,54.676L164.119,54.423L164.626,51.892L165.386,52.398L165.386,58.979L164.373,58.979L163.866,56.701L162.346,56.448L162.346,60.751L162.6,61.511L163.36,61.764L165.386,61.764L166.652,61.257L168.425,58.726L168.932,58.979L167.918,63.029L157.534,63.029L158.547,62.523L159.054,62.523L159.054,55.435L158.801,49.107L157.788,48.854L157.788,48.348Z" style="fill:rgb(39,56,153);fill-rule:nonzero;"/>
        <path id="path109" d="M213.507,24.3L217.559,24.3L219.586,27.085L222.372,31.388L223.131,32.401L223.131,27.085L222.372,24.3L225.411,24.3L224.651,26.579L224.398,33.16L224.398,38.982L223.385,38.729L220.599,34.679L216.04,27.844L215.787,27.844L216.04,38.223L217.306,38.476L217.306,38.982L214.267,38.982L214.774,37.21L214.774,26.326L213.507,24.3Z" style="fill:rgb(38,54,152);fill-rule:nonzero;"/>
        <path id="path111" d="M266.694,0L267.201,0L266.947,1.266L263.908,7.088L260.869,12.656L260.362,13.922L262.895,13.922L265.681,13.163L266.694,11.644L267.454,9.366L267.96,9.619L267.96,12.403L267.454,14.175L267.454,14.682L256.057,14.682L258.083,10.885L261.882,3.544L262.895,1.519L259.349,1.772L258.589,2.531L257.576,4.556L257.323,4.556L257.323,0.253L266.694,0Z" style="fill:rgb(38,55,153);fill-rule:nonzero;"/>
        <path id="path113" d="M178.809,48.348L181.848,48.348L181.342,49.36L181.089,50.373L180.835,55.182L180.835,63.282L179.822,62.776L177.543,59.486L173.997,54.423L172.477,52.145L172.477,51.639L171.971,51.639L172.224,52.145L172.477,62.27L173.744,62.776L173.237,63.282L169.945,63.029L170.958,61.764L171.211,60.498L171.211,51.132L170.451,49.36L170.198,48.601L174.25,48.601L179.569,56.448L179.569,50.373L178.809,48.854L178.809,48.348Z" style="fill:rgb(38,54,152);fill-rule:nonzero;"/>
        <path id="path115" d="M214.52,0.253L215.533,0.506L218.066,7.341L220.092,12.656L220.599,14.175L222.878,14.175L223.131,13.922L223.131,2.025L223.638,2.025L224.398,5.063L224.651,13.669L226.424,14.428L226.424,14.682L216.04,14.682L216.8,13.669L216.04,11.138L215.533,10.885L211.988,10.885L211.481,11.897L211.481,13.669L212.241,14.175L212.241,14.682L208.948,14.682L211.228,9.619L213.001,4.809L214.014,2.278L214.52,0.253ZM213.76,5.316L212.241,9.366L212.241,9.872L215.027,10.125L215.533,9.872L215.28,8.353L214.267,5.569L213.76,5.316Z" style="fill:rgb(37,54,152);fill-rule:nonzero;"/>
        <path id="path117" d="M179.822,120.743L180.329,120.996L179.316,122.009L177.796,124.54L177.289,124.54L176.53,128.337L176.023,129.603L176.276,131.881L177.289,135.171L178.049,137.45L178.556,137.703L178.556,138.209L179.569,138.715L181.848,140.234L183.368,140.487L183.115,139.221L187.167,140.234L189.446,140.234L191.979,139.475L194.005,138.209L195.778,136.69L197.298,133.653L197.804,132.893L198.311,133.399L198.311,134.159L199.831,134.412L200.084,133.653L199.831,135.424L198.311,137.956L196.031,140.487L192.992,142.259L189.446,143.272L186.66,143.272L183.874,142.765L180.835,141.246L177.796,138.209L176.53,136.184L175.517,133.399L175.517,127.831L176.53,125.046L178.049,122.768L179.822,120.743Z" style="fill:rgb(176,220,248);fill-rule:nonzero;"/>
        <path id="path119" d="M13.423,24.3L17.729,24.3L18.742,24.807L17.729,25.566L17.476,33.666L17.729,36.451L18.995,37.716L20.768,37.716L21.781,37.21L22.288,36.198L22.541,29.11L22.288,25.819L21.781,24.554L22.035,24.3L24.821,24.3L24.061,25.819L23.807,36.198L23.048,37.716L21.528,38.982L20.008,39.235L17.729,39.235L15.956,38.476L14.943,37.21L14.436,35.691L14.183,33.666L13.93,25.566L13.423,24.3Z" style="fill:rgb(43,61,156);fill-rule:nonzero;"/>
        <path id="path121" d="M46.349,0.253L52.427,0.253L51.92,1.266L51.414,1.519L51.414,12.15L51.92,13.416L52.427,13.669L54.706,13.669L55.72,12.403L56.226,10.885L56.479,3.038L55.973,1.519L54.96,0.759L54.96,0.253L58.506,0.253L57.999,1.519L57.746,1.772L57.492,10.378L56.986,12.656L55.973,14.175L54.706,14.935L50.401,14.935L49.135,14.175L48.121,12.403L47.868,11.138L47.615,1.519L46.349,0.759L46.349,0.253Z" style="fill:rgb(37,54,152);fill-rule:nonzero;"/>
        <path id="path123" d="M26.34,24.3L30.139,24.3L32.165,26.832L34.698,30.629L35.964,32.654L36.471,32.907L36.218,32.401L35.964,26.072L34.951,25.06L34.951,24.3L38.244,24.3L37.231,26.326L37.231,38.982L36.218,38.729L34.192,35.944L29.126,28.351L28.366,27.338L28.366,36.957L28.62,37.716L30.139,38.476L30.139,38.982L26.34,38.982L26.34,38.476L27.1,37.969L27.353,36.957L27.353,26.072L26.34,24.3Z" style="fill:rgb(38,55,153);fill-rule:nonzero;"/>
        <path id="path125" d="M146.897,24.3L156.775,24.3L156.775,28.857L156.268,28.351L155.508,26.326L154.748,25.819L151.203,25.566L151.203,31.135L152.975,30.882L153.989,28.604L154.495,28.604L154.495,34.932L153.482,33.919L152.722,32.654L151.456,32.147L151.456,37.716L152.722,38.476L152.722,38.982L146.39,38.982L146.644,38.476L147.657,38.223L147.91,37.716L147.91,26.326L147.404,25.06L146.897,24.3Z" style="fill:rgb(35,51,150);fill-rule:nonzero;"/>
        <path id="path127" d="M103.081,24.3L113.972,24.3L114.225,25.313L114.478,27.844L113.465,27.338L112.452,26.072L110.173,25.566L110.173,38.223L111.692,38.476L111.692,38.982L105.361,38.982L105.361,38.476L106.627,37.969L106.88,25.566L104.348,26.072L103.841,27.844L102.828,27.844L102.575,24.554L103.081,24.3Z" style="fill:rgb(36,53,151);fill-rule:nonzero;"/>
        <path id="path129" d="M274.545,290.34L276.065,290.593L277.078,291.606L276.825,292.871L275.812,294.137L273.532,295.403L273.532,296.415L275.052,296.162L276.065,295.403L277.078,295.403L276.572,296.668L273.786,298.693L272.519,298.693L271.759,297.174L271,297.428L270.24,298.693L268.72,299.453L266.947,299.453L266.441,298.693L265.174,298.946L264.161,300.212L262.895,300.212L262.642,299.959L262.388,293.124L263.148,292.365L264.921,292.618L265.174,292.871L265.174,294.643L264.415,297.174L264.668,297.934L265.934,297.428L266.694,293.631L268.214,291.859L269.48,291.099L270.746,291.099L271.506,292.112L271.506,293.378L269.227,293.124L268.467,293.631L268.214,294.39L268.214,297.174L268.467,297.681L269.733,297.174L271.506,295.149L272.013,293.124L273.279,291.099L274.545,290.34ZM274.039,292.112L273.786,292.365L273.786,293.884L274.545,293.631L275.052,292.112L274.039,292.112Z" style="fill:rgb(39,56,153);fill-rule:nonzero;"/>
        <path id="path131" d="M121.823,48.095L123.849,48.095L126.382,48.601L126.889,48.601L127.142,52.904L126.129,51.892L124.609,49.867L123.849,49.36L121.823,49.36L121.317,51.385L121.823,52.398L125.622,54.929L127.395,56.954L127.648,57.46L127.648,60.245L126.382,62.27L125.369,63.282L121.823,63.282L120.557,63.029L118.784,63.029L118.784,57.714L119.544,57.967L120.557,60.498L121.823,61.764L123.596,62.523L124.609,62.27L125.369,61.004L125.369,59.739L124.103,58.473L121.317,56.448L120.05,55.182L119.29,54.17L119.037,53.41L119.037,51.385L119.797,49.867L121.063,48.601L121.823,48.095Z" style="fill:rgb(39,56,153);fill-rule:nonzero;"/>
        <path id="path133" d="M88.138,24.3L91.684,24.3L93.71,24.554L93.963,28.857L92.95,27.844L91.937,26.072L90.924,25.566L88.645,25.566L88.138,26.326L88.138,27.844L93.204,31.388L94.47,33.413L94.47,35.944L93.457,37.969L92.191,38.982L85.859,38.982L85.605,37.463L85.605,33.919L86.112,33.413L86.872,35.691L87.885,37.21L89.151,37.969L91.177,37.969L91.937,37.463L92.191,35.438L90.418,33.919L88.138,32.401L86.365,30.629L85.859,29.363L85.859,27.338L86.872,25.313L88.138,24.3Z" style="fill:rgb(36,53,152);fill-rule:nonzero;"/>
        <path id="path135" d="M190.966,24.3L195.018,24.3L197.045,24.554L198.058,24.3L198.311,24.807L198.058,26.072L198.058,28.857L197.298,28.857L196.031,26.579L194.005,25.566L191.979,25.819L190.46,27.085L189.953,28.604L189.7,32.401L190.206,35.691L191.219,37.21L192.739,37.969L194.765,37.716L196.538,36.704L197.298,35.944L198.058,36.198L196.538,38.223L195.272,38.982L192.232,39.235L189.953,38.982L188.433,37.969L186.914,35.691L185.901,33.16L185.901,30.882L187.42,27.085L189.193,25.06L190.966,24.3Z" style="fill:rgb(38,55,153);fill-rule:nonzero;"/>
        <path id="path137" d="M161.587,24.3L172.477,24.3L172.731,27.844L171.971,27.844L170.958,26.072L168.425,25.566L168.678,37.716L170.198,38.476L170.198,38.982L163.613,38.982L163.866,38.476L165.132,37.969L165.386,25.566L163.106,26.072L161.84,28.097L161.333,28.097L161.333,24.807L161.587,24.3Z" style="fill:rgb(36,52,151);fill-rule:nonzero;"/>
        <path id="path139" d="M115.238,24.3L119.797,24.3L120.05,24.807L120.304,27.085L122.076,31.388L123.09,30.376L124.862,26.832L124.862,25.313L124.356,24.3L127.395,24.3L126.889,25.566L123.09,32.907L122.836,33.919L122.836,37.969L124.356,38.476L124.356,38.982L117.771,38.982L117.771,38.476L119.544,38.223L119.544,34.679L119.037,32.654L116.504,26.832L115.238,24.807L115.238,24.3Z" style="fill:rgb(38,54,152);fill-rule:nonzero;"/>
        <path id="path141" d="M281.89,24.3L286.449,24.3L286.956,27.085L288.982,31.641L289.742,30.629L291.768,26.326L291.514,25.06L291.261,24.3L294.3,24.3L294.047,25.313L293.034,26.579L290.248,31.894L289.742,33.413L289.742,37.716L291.768,38.476L291.768,38.729L290.501,38.982L284.676,38.982L286.196,37.463L286.196,33.666L284.929,30.376L282.903,26.072L281.89,24.807L281.89,24.3Z" style="fill:rgb(38,55,153);fill-rule:nonzero;"/>
        <path id="path143" d="M241.367,24.3L247.445,24.3L247.192,24.807L246.179,25.313L245.926,35.944L245.926,37.969L248.965,37.716L250.485,36.957L252.004,33.919L252.258,33.919L252.258,36.704L252.004,38.476L251.498,38.982L240.86,38.982L241.114,38.476L242.127,37.969L242.38,36.704L242.38,26.072L241.62,24.807L241.367,24.3Z" style="fill:rgb(42,60,155);fill-rule:nonzero;"/>
        <path id="path145" d="M203.376,48.348L204.389,48.854L206.162,54.17L208.188,59.739L209.455,62.27L209.455,62.776L210.721,62.776L210.721,63.029L204.136,63.029L204.643,62.523L205.402,62.523L204.643,59.486L204.389,58.726L203.883,58.979L201.097,58.979L201.35,57.967L203.63,57.967L203.883,57.714L202.617,53.917L201.097,57.967L200.084,60.751L199.831,62.27L201.097,62.776L201.097,63.029L197.298,63.282L198.817,60.245L201.35,53.664L202.87,49.867L203.376,48.348Z" style="fill:rgb(39,56,153);fill-rule:nonzero;"/>
        <path id="path147" d="M59.772,0.253L66.357,0.253L66.357,0.759L64.837,1.266L64.584,13.922L67.877,13.669L69.396,12.656L70.916,9.619L71.169,9.619L70.916,12.403L70.663,14.682L59.772,14.682L59.772,14.175L61.038,13.669L61.038,1.519L59.772,0.253Z" style="fill:rgb(37,54,152);fill-rule:nonzero;"/>
        <path id="path149" d="M129.168,48.601L139.805,48.601L140.312,51.132L140.312,52.145L139.299,51.639L138.286,50.12L136.006,49.613L136.26,61.764L137.526,63.029L136.766,63.282L131.447,63.282L131.447,62.776L132.461,62.523L132.714,62.017L132.967,49.613L131.194,49.867L129.421,52.145L128.915,52.145L128.915,48.854L129.168,48.601Z" style="fill:rgb(37,54,152);fill-rule:nonzero;"/>
        <path id="path151" d="M76.234,295.403L78.514,295.656L79.78,296.921L80.54,295.909L81.806,295.909L82.313,296.415L81.806,298.693L80.793,301.225L80.793,301.984L82.06,301.225L82.82,299.959L83.579,297.428L84.339,296.668L85.859,296.668L85.859,297.934L85.099,299.2L84.846,301.478L85.099,302.49L83.579,304.262L82.313,304.262L81.553,303.25L80.54,303.756L79.527,304.009L78.514,303.25L78.767,300.971L79.274,297.934L78.007,297.681L77.248,297.175L76.488,297.175L76.994,298.693L77.754,299.959L77.501,301.225L75.728,303.25L73.448,302.997L72.182,301.731L72.435,300.212L72.689,299.706L73.448,299.959L74.208,301.478L75.475,301.225L75.221,299.959L74.208,298.44L74.462,297.428L75.475,295.909L76.234,295.403Z" style="fill:rgb(39,56,153);fill-rule:nonzero;"/>
        <path id="path153" d="M148.163,0.253L159.814,0.253L159.561,1.013L158.294,1.266L158.041,2.278L158.041,13.669L161.333,13.669L162.6,12.91L164.373,9.619L164.626,9.619L164.373,11.897L164.119,14.428L163.866,14.682L153.229,14.682L153.482,14.175L154.748,13.669L154.748,1.519L153.229,1.013L151.456,1.266L150.949,2.784L150.443,2.784L150.189,2.025L148.163,0.759L148.163,0.253Z" style="fill:rgb(36,53,151);fill-rule:nonzero;"/>
        <path id="path155" d="M249.218,0L249.725,0L250.485,2.025L252.511,8.1L254.284,12.656L255.044,14.175L255.55,14.682L249.472,14.682L250.485,14.175L251.245,14.175L250.485,11.644L249.978,10.885L246.179,10.885L245.419,13.922L246.686,14.175L246.686,14.682L242.887,14.682L244.153,12.656L247.699,3.544L249.218,0ZM248.205,5.569L246.686,8.606L246.432,9.872L248.459,10.125L249.725,9.872L249.218,7.594L248.459,5.569L248.205,5.569Z" style="fill:rgb(38,55,153);fill-rule:nonzero;"/>
        <path id="path157" d="M274.545,0.253L275.305,0.253L278.851,10.378L280.371,13.922L281.13,14.175L281.13,14.682L275.558,14.682L276.318,13.922L276.065,11.897L275.812,11.138L275.305,10.885L271.759,10.885L271,12.91L271.253,13.922L272.013,14.175L272.013,14.682L268.72,14.682L270.24,11.644L272.013,6.581L274.545,0.253ZM273.532,5.569L272.266,8.606L272.013,9.872L274.799,10.125L275.305,9.872L275.052,8.353L274.039,5.822L273.532,5.569Z" style="fill:rgb(38,54,152);fill-rule:nonzero;"/>
        <path id="path159" d="M196.791,0.253L203.123,0.253L203.123,0.759L201.35,1.266L201.35,13.922L203.63,13.922L205.149,13.416L206.162,12.403L207.429,9.872L207.682,9.872L207.682,12.15L207.429,14.682L198.311,14.935L195.778,14.682L195.778,14.428L198.058,14.175L198.058,1.772L196.791,1.013L196.791,0.253Z" style="fill:rgb(40,57,154);fill-rule:nonzero;"/>
        <path id="path161" d="M104.601,0L105.107,0L109.16,11.138L110.173,13.416L111.186,14.682L105.361,14.682L106.374,13.922L106.12,12.15L105.867,10.885L101.562,10.885L101.055,12.403L101.055,13.669L102.068,14.682L99.029,14.935L98.522,14.428L99.789,12.656L101.562,7.594L104.094,1.519L104.601,0ZM103.588,5.316L102.575,7.594L101.815,9.872L104.601,10.125L105.361,9.619L104.094,5.569L103.588,5.316Z" style="fill:rgb(39,56,153);fill-rule:nonzero;"/>
        <path id="path163" d="M46.602,24.3L52.174,24.3L52.174,24.807L50.907,25.06L51.92,28.857L53.693,33.666L54.2,33.666L55.72,29.11L56.479,27.338L56.479,25.566L55.466,24.554L56.733,24.3L59.012,24.3L58.506,25.566L57.239,28.097L54.96,34.173L53.693,37.463L53.187,38.982L52.174,38.729L49.894,32.654L47.108,25.313L46.602,24.3Z" style="fill:rgb(40,58,154);fill-rule:nonzero;"/>
        <path id="path165" d="M158.801,297.428L161.08,297.428L161.84,298.187L161.08,298.946L158.547,299.2L156.521,307.3L157.788,306.793L159.054,303.756L160.32,302.237L161.84,301.478L163.36,301.731L163.866,302.237L163.866,304.009L162.853,305.275L160.574,306.287L160.067,306.54L160.067,307.553L161.333,307.553L162.6,306.54L163.613,306.54L163.36,307.553L162.093,308.818L161.08,309.325L158.801,309.325L158.041,308.565L157.028,308.818L156.521,309.325L155.002,309.325L154.495,309.072L154.242,307.806L155.761,301.478L156.775,299.2L157.788,297.934L158.801,297.428ZM161.333,303.25L160.574,304.009L160.574,304.768L161.587,304.515L161.84,303.25L161.333,303.25Z" style="fill:rgb(40,57,154);fill-rule:nonzero;"/>
        <path id="path167" d="M194.512,297.428L196.031,297.428L196.285,298.44L195.778,305.275L195.525,306.54L197.298,306.793L197.804,307.806L197.298,308.059L193.499,308.312L192.992,308.059L193.499,305.275L191.726,305.528L190.206,307.3L188.433,309.578L187.674,310.337L185.901,310.337L185.394,309.831L185.647,308.818L187.674,308.059L189.446,305.781L190.966,303.503L191.219,302.49L190.206,302.237L189.7,301.731L189.7,299.959L190.966,298.44L192.232,297.681L194.512,297.428ZM192.232,298.946L191.219,300.465L191.219,301.984L191.979,301.984L193.499,299.706L193.246,298.946L192.232,298.946ZM193.752,300.971L192.232,303.503L192.232,304.009L193.499,304.009L194.005,300.971L193.752,300.971Z" style="fill:rgb(41,58,154);fill-rule:nonzero;"/>
        <path id="path169" d="M184.888,118.718L185.901,118.718L186.154,119.73L184.634,120.237L183.115,121.249L182.608,121.249L182.102,122.262L181.595,122.515L180.835,123.781L179.316,126.059L178.556,128.084L178.303,131.374L179.062,134.412L180.582,136.943L183.115,138.968L183.621,140.487L182.608,140.74L180.582,139.728L178.556,138.209L178.556,137.703L177.796,137.45L176.276,133.146L175.77,130.615L176.023,128.843L177.289,124.54L177.796,124.54L178.303,123.274L179.316,121.755L181.342,119.73L183.621,118.971L184.888,118.718Z" style="fill:rgb(185,232,248);fill-rule:nonzero;"/>
        <path id="path171" d="M144.111,240.22L146.897,240.22L149.936,240.473L159.054,240.473L161.333,240.22L164.119,240.22L163.866,241.486L162.093,242.498L158.294,243.511L155.761,243.764L152.216,243.764L148.163,243.258L144.364,241.992L143.604,241.233L144.111,240.22Z" style="fill:rgb(176,220,248);fill-rule:nonzero;"/>
        <path id="path173" d="M117.771,118.465L121.063,118.718L123.596,119.984L126.129,122.262L127.648,124.54L128.408,126.312L128.915,128.843L128.915,131.881L128.155,135.678L126.635,137.956L125.876,138.209L125.622,137.196L126.129,136.437L126.129,128.843L125.116,125.806L124.103,123.781L122.33,122.262L121.823,120.996L120.304,120.49L119.797,119.984L117.518,119.224L117.771,118.465Z" style="fill:rgb(185,232,248);fill-rule:nonzero;"/>
        <path id="path175" d="M40.017,24.3L45.335,24.3L45.335,24.807L44.576,25.313L44.322,26.579L44.322,38.223L45.589,38.476L45.589,38.982L39.763,38.982L39.763,38.476L40.777,37.969L40.777,25.06L39.763,24.554L40.017,24.3Z" style="fill:rgb(36,53,151);fill-rule:nonzero;"/>
        <path id="path177" d="M96.496,24.3L101.055,24.3L101.055,25.06L100.548,25.566L100.295,33.413L100.295,37.969L102.068,38.476L102.068,38.982L95.483,38.982L95.99,38.223L97.003,37.716L97.003,25.313L95.99,25.06L95.99,24.554L96.496,24.3Z" style="fill:rgb(47,66,159);fill-rule:nonzero;"/>
        <path id="path179" d="M146.39,301.478L147.91,301.478L147.91,302.49L146.897,303.756L146.39,305.781L146.39,306.793L147.657,306.54L148.163,305.275L148.923,301.984L149.176,301.731L150.696,301.731L150.696,304.262L150.189,307.3L151.962,306.287L152.975,304.515L152.975,301.984L153.229,301.731L154.495,301.731L154.748,301.984L154.495,304.262L153.735,306.034L151.709,308.312L149.43,309.578L148.417,309.325L148.67,307.553L146.39,309.325L144.618,309.325L144.364,309.072L144.111,301.984L144.364,301.731L146.39,301.478Z" style="fill:rgb(39,57,154);fill-rule:nonzero;"/>
        <path id="path181" d="M93.457,295.656L94.723,295.656L94.47,297.175L94.217,298.187L95.736,298.44L95.736,299.453L93.71,299.706L92.444,302.49L92.191,303.503L93.204,303.25L93.71,302.49L94.976,302.743L94.47,303.756L92.191,305.022L90.418,305.022L89.911,304.515L90.164,302.49L90.924,300.212L90.924,298.946L89.658,298.946L88.898,300.971L88.898,302.237L89.405,302.743L89.151,303.756L87.885,304.515L85.605,304.262L85.352,303.756L86.872,300.212L86.619,298.946L86.619,297.934L87.378,297.428L89.911,297.428L91.431,297.934L93.457,295.656Z" style="fill:rgb(39,56,153);fill-rule:nonzero;"/>
        <path id="path183" d="M213.254,294.137L214.52,294.137L214.774,294.39L214.52,296.162L212.494,296.162L211.988,296.415L211.734,297.175L211.228,303.503L210.721,305.022L211.228,305.022L211.734,304.009L212.241,304.009L212.241,305.275L210.215,307.047L208.188,307.047L207.682,307.3L206.162,307.3L204.896,306.034L205.149,304.262L205.909,301.984L207.682,299.959L209.455,299.2L210.215,296.415L211.988,294.643L213.254,294.137ZM208.695,300.971L207.429,301.984L207.175,302.996L207.175,305.022L207.682,305.528L208.695,305.275L209.455,302.237L209.455,300.971L208.695,300.971Z" style="fill:rgb(41,58,154);fill-rule:nonzero;"/>
        <path id="path185" d="M42.549,290.34L44.322,290.34L44.576,291.099L46.095,290.593L47.615,290.846L47.868,292.618L45.842,296.162L47.615,295.656L47.868,296.162L46.602,297.681L45.589,298.187L44.069,297.934L43.563,296.921L44.829,293.884L45.335,292.365L44.069,293.124L42.043,297.174L40.777,297.428L40.017,297.174L40.27,295.909L41.536,293.631L41.79,292.365L40.523,291.859L41.03,290.846L42.549,290.34Z" style="fill:rgb(39,56,153);fill-rule:nonzero;"/>
        <path id="path187" d="M203.123,299.706L204.389,299.959L204.389,302.997L203.883,305.528L203.883,306.034L204.389,306.034L204.136,307.3L203.63,307.806L202.363,307.553L201.857,306.793L201.857,304.009L202.363,302.237L202.11,301.731L201.097,302.997L200.337,306.54L199.831,308.059L198.058,307.806L198.817,302.743L197.045,302.49L196.538,301.984L198.564,301.225L199.577,299.959L200.59,299.959L201.35,300.971L202.363,299.959L203.123,299.706Z" style="fill:rgb(39,57,154);fill-rule:nonzero;"/>
        <path id="path189" d="M139.299,301.478L141.578,301.478L142.845,302.49L143.858,302.997L143.604,304.262L142.085,306.793L140.565,308.565L139.046,309.325L137.779,309.072L136.006,307.553L135.753,306.287L136.766,304.009L138.792,301.731L139.299,301.478ZM139.805,302.743L138.539,304.009L138.286,307.047L138.539,307.553L139.805,307.3L140.565,306.287L141.072,304.768L140.818,302.997L139.805,302.743Z" style="fill:rgb(41,58,155);fill-rule:nonzero;"/>
        <path id="path191" d="M37.231,286.543L39.51,286.543L42.043,286.796L42.043,287.809L40.523,288.568L39.51,289.834L38.244,292.871L37.484,294.137L37.484,295.403L38.244,296.668L37.991,297.174L35.711,296.668L33.178,296.162L32.925,295.403L34.951,294.896L35.458,293.378L37.484,289.581L37.484,288.062L37.231,286.543Z" style="fill:rgb(35,52,151);fill-rule:nonzero;"/>
        <path id="path193" d="M151.203,101.758L153.229,101.758L154.495,102.518L155.255,103.53L155.255,105.808L154.748,106.821L153.229,107.58L150.949,107.58L149.683,106.568L149.176,104.543L149.936,102.771L151.203,101.758Z" style="fill:rgb(34,50,150);fill-rule:nonzero;"/>
        <path id="path195" d="M125.876,133.399L126.382,134.159L126.382,136.437L125.876,137.703L126.382,137.956L125.876,138.968L123.343,141.246L120.557,142.512L117.771,143.272L115.491,143.272L112.452,142.765L109.413,141.246L106.88,138.968L105.867,137.703L105.867,137.196L106.627,137.45L107.64,138.968L113.212,142.006L117.264,142.006L118.784,142.259L120.81,141.5L121.823,141.5L121.823,140.993L123.09,139.981L123.596,139.981L123.596,139.221L124.356,139.221L123.849,138.209L122.836,139.475L121.317,139.728L121.063,139.221L123.09,137.703L125.116,135.424L125.876,133.399Z" style="fill:rgb(176,220,248);fill-rule:nonzero;"/>
        <path id="path197" d="M181.595,300.971L182.861,301.478L183.368,302.237L183.368,303.756L181.595,305.275L180.329,305.781L180.075,307.047L181.848,306.287L183.115,305.781L182.861,307.3L181.595,308.312L180.075,309.072L178.809,308.818L177.796,307.553L177.543,306.287L178.809,303.25L180.329,301.478L181.595,300.971ZM180.835,302.743L180.582,304.515L181.595,303.503L181.595,302.743L180.835,302.743Z" style="fill:rgb(38,55,153);fill-rule:nonzero;"/>
        <path id="path199" d="M111.692,123.527L112.452,123.781L111.439,125.552L110.679,126.059L110.426,128.337L109.919,128.59L109.666,129.856L110.933,132.893L111.439,133.906L111.946,134.159L112.705,135.424L113.212,135.931L113.212,136.69L111.692,137.196L110.679,136.943L108.653,134.159L108.147,132.64L107.893,130.109L108.4,127.577L110.173,124.793L111.692,123.527Z" style="fill:rgb(185,232,248);fill-rule:nonzero;"/>
        <path id="path201" d="M186.914,117.959L189.193,117.959L192.739,118.718L195.525,120.237L194.765,120.49L192.486,119.477L192.486,118.971L190.206,118.971L190.46,119.73L191.979,119.477L192.739,120.49L192.739,120.996L193.499,121.249L194.512,122.768L190.713,121.249L189.193,120.996L186.914,120.996L183.874,121.755L181.342,123.021L181.595,122.262L183.621,120.49L184.888,119.73L185.901,119.477L185.901,118.718L182.861,119.477L182.102,119.224L185.141,118.212L186.914,117.959Z" style="fill:rgb(176,220,248);fill-rule:nonzero;"/>
        <path id="path203" d="M70.663,294.39L71.676,294.643L72.435,295.656L73.448,294.643L74.715,294.896L74.968,295.909L73.702,296.921L71.929,297.175L69.903,301.225L69.649,301.984L68.89,302.237L68.13,301.984L67.877,300.465L69.396,297.175L69.396,296.415L67.877,296.921L67.877,296.162L70.663,294.39Z" style="fill:rgb(41,59,155);fill-rule:nonzero;"/>
        <path id="path205" d="M113.465,118.212L119.29,118.212L120.304,118.718L118.024,118.718L117.771,119.224L120.05,119.984L121.823,120.996L122.33,122.262L123.343,122.768L124.862,124.54L124.609,125.046L122.583,122.768L120.05,121.502L117.264,120.996L115.238,120.996L112.199,121.502L112.199,120.743L112.959,120.237L113.719,120.237L113.972,119.73L115.491,119.73L115.491,118.718L112.705,118.971L110.933,119.224L111.692,118.718L113.465,118.212Z" style="fill:rgb(176,220,248);fill-rule:nonzero;"/>
        <path id="path207" d="M155.508,170.863L158.294,170.863L159.561,171.622L159.814,173.394L158.294,174.407L155.508,174.407L154.242,173.647L153.989,172.381L155.002,171.116L155.508,170.863Z" style="fill:rgb(34,50,150);fill-rule:nonzero;"/>
        <path id="path209" d="M187.167,128.337L188.94,128.337L190.206,129.603L190.206,131.374L189.193,132.64L187.674,132.893L186.407,132.134L185.901,131.374L185.901,129.349L187.167,128.337Z" style="fill:rgb(34,50,150);fill-rule:nonzero;"/>
        <path id="path211" d="M115.745,128.337L117.264,128.337L118.531,129.349L118.784,131.121L117.518,132.64L115.998,132.893L114.732,132.134L114.225,131.121L114.225,129.603L115.745,128.337Z" style="fill:rgb(34,50,150);fill-rule:nonzero;"/>
        <path id="path213" d="M194.259,138.968L195.018,138.968L194.765,140.487L192.992,141.5L189.953,142.259L187.927,142.259L184.888,141.753L184.381,140.74L184.634,140.234L187.167,140.234L191.726,140.487L194.259,138.968Z" style="fill:rgb(186,233,248);fill-rule:nonzero;"/>
        <path id="path215" d="M295.06,35.185L296.327,35.944L296.833,37.21L296.833,40.248L295.06,42.273L294.554,42.779L293.794,42.526L295.567,39.995L295.567,39.235L293.794,38.476L293.287,37.969L293.541,36.704L294.554,35.438L295.06,35.185Z" style="fill:rgb(41,58,155);fill-rule:nonzero;"/>
        <path id="path217" d="M180.582,130.362L181.342,130.615L182.355,133.399L183.368,134.918L183.874,135.171L184.128,136.69L182.861,136.943L181.595,136.184L180.075,133.906L179.822,133.146L179.822,130.615L180.582,130.362Z" style="fill:rgb(186,232,248);fill-rule:nonzero;"/>
        <path id="path219" d="M122.33,125.806L123.849,126.312L124.609,128.337L124.862,131.121L124.356,133.653L123.09,133.399L122.836,133.146L122.836,130.109L122.583,129.603L122.33,127.324L122.076,126.312L122.33,125.806Z" style="fill:rgb(185,232,248);fill-rule:nonzero;"/>
        <path id="path221" d="M17.222,2.784L17.982,2.784L18.489,13.922L19.755,14.175L19.755,14.682L15.703,14.682L15.956,14.175L17.222,13.669L17.222,2.784Z" style="fill:rgb(41,59,155);fill-rule:nonzero;"/>
        <path id="path223" d="M191.726,144.537L193.499,144.537L194.259,145.803L194.259,147.068L192.739,147.828L191.473,147.828L191.219,147.068L192.232,147.068L191.979,146.056L190.966,145.803L191.219,144.79L191.726,144.537Z" style="fill:rgb(185,231,248);fill-rule:nonzero;"/>
        <path id="path225" d="M186.154,145.043L187.674,145.043L188.18,146.056L188.18,148.081L187.674,148.334L185.901,148.334L185.394,148.081L185.901,145.55L186.154,145.043Z" style="fill:rgb(182,228,248);fill-rule:nonzero;"/>
        <path id="path227" d="M114.732,145.043L116.251,145.043L116.504,145.803L116.504,148.081L116.251,148.334L114.478,148.334L113.972,148.081L114.225,145.55L114.732,145.043Z" style="fill:rgb(185,231,248);fill-rule:nonzero;"/>
        <path id="path229" d="M120.81,144.79L122.33,145.043L122.583,146.815L121.57,147.828L119.797,147.828L119.797,145.043L120.81,144.79Z" style="fill:rgb(186,233,248);fill-rule:nonzero;"/>
        <path id="path231" d="M132.461,120.49L133.727,120.743L133.474,121.502L132.967,121.502L132.461,122.515L131.701,123.781L129.928,124.034L130.181,122.262L132.461,120.49Z" style="fill:rgb(187,234,249);fill-rule:nonzero;"/>
        <path id="path233" d="M101.815,119.984L103.841,120.996L104.094,121.249L104.094,122.515L103.334,123.021L100.802,121.755L101.055,120.49L101.815,119.984Z" style="fill:rgb(187,234,249);fill-rule:nonzero;"/>
        <path id="path235" d="M173.237,119.477L175.263,120.996L175.517,122.009L174.25,122.262L171.971,121.502L171.717,120.49L173.237,119.477Z" style="fill:rgb(187,234,249);fill-rule:nonzero;"/>
        <path id="path237" d="M100.042,125.299L101.815,125.806L102.068,127.577L101.055,127.831L101.055,128.337L99.789,128.084L99.535,126.312L100.042,125.299Z" style="fill:rgb(187,234,249);fill-rule:nonzero;"/>
        <path id="path239" d="M148.163,0.253L151.709,0.253L153.482,0.506L153.229,1.013L151.456,1.266L150.949,2.784L150.443,2.784L150.189,2.025L148.163,0.759L148.163,0.253Z" style="fill:rgb(39,56,153);fill-rule:nonzero;"/>
        <path id="path241" d="M111.692,123.527L112.452,123.781L111.439,125.552L110.679,126.059L110.426,127.071L109.413,127.324L109.16,127.831L108.653,127.577L109.16,126.312L110.679,124.287L111.692,123.527Z" style="fill:rgb(182,228,248);fill-rule:nonzero;"/>
        <path id="path243" d="M100.042,131.374L101.815,131.374L102.068,132.893L101.815,133.146L99.789,133.146L99.029,132.893L98.776,131.881L100.042,131.374Z" style="fill:rgb(183,229,248);fill-rule:nonzero;"/>
        <path id="path245" d="M146.137,240.727L148.67,240.727L154.242,241.233L153.482,241.739L148.67,241.992L147.91,241.233L146.137,240.98L146.137,240.727Z" style="fill:rgb(187,234,249);fill-rule:nonzero;"/>
        <path id="path247" d="M128.915,137.956L130.434,137.956L130.941,138.209L131.194,139.475L130.941,139.981L130.434,139.981L130.181,140.74L128.915,139.475L128.915,137.956Z" style="fill:rgb(185,232,248);fill-rule:nonzero;"/>
        <path id="path249" d="M109.919,143.778L111.186,144.284L110.933,146.309L109.16,145.803L108.906,144.537L109.919,143.778Z" style="fill:rgb(187,234,249);fill-rule:nonzero;"/>
        <path id="path251" d="M90.164,293.631L91.431,293.884L91.684,294.39L90.924,295.656L89.658,295.909L89.151,294.896L90.164,293.631Z" style="fill:rgb(40,58,154);fill-rule:nonzero;"/>
        <path id="path253" d="M104.601,140.487L106.12,140.74L106.374,141.753L105.107,142.512L103.841,142.259L104.348,140.74L104.601,140.487Z" style="fill:rgb(186,233,248);fill-rule:nonzero;"/>
        <path id="path255" d="M197.551,141.5L198.817,142.006L199.324,142.512L199.071,143.272L197.298,143.525L196.538,143.272L196.791,142.006L197.551,141.5Z" style="fill:rgb(183,229,248);fill-rule:nonzero;"/>
        <path id="path257" d="M118.784,136.184L119.797,136.184L119.797,136.69L119.29,136.69L119.037,137.703L118.784,137.956L117.011,137.956L116.758,136.943L118.784,136.184Z" style="fill:rgb(187,234,249);fill-rule:nonzero;"/>
        <path id="path259" d="M149.683,124.54L151.709,124.54L151.456,126.312L150.443,126.565L150.189,125.806L149.683,125.806L149.683,124.54Z" style="fill:rgb(185,231,248);fill-rule:nonzero;"/>
        <path id="path261" d="M131.194,132.893L133.22,132.893L133.474,133.399L132.967,134.159L131.194,134.412L130.941,134.918L130.941,133.146L131.194,132.893Z" style="fill:rgb(187,234,249);fill-rule:nonzero;"/>
        <path id="path263" d="M172.224,131.628L173.237,131.881L173.237,133.146L171.211,133.146L171.211,132.64L170.704,132.64L170.704,131.881L172.224,131.628Z" style="fill:rgb(186,233,248);fill-rule:nonzero;"/>
        <path id="path265" d="M126.889,230.095L127.395,230.095L127.142,231.614L126.129,232.12L125.116,231.614L125.369,230.601L126.889,230.095Z" style="fill:rgb(186,233,248);fill-rule:nonzero;"/>
        <path id="path267" d="M105.867,116.946L107.133,117.199L107.64,118.718L105.867,118.718L105.361,117.705L105.867,116.946Z" style="fill:rgb(187,234,249);fill-rule:nonzero;"/>
        <path id="path269" d="M201.35,57.967L203.63,57.967L203.883,58.979L201.097,58.979L201.35,57.967Z" style="fill:rgb(34,50,150);fill-rule:nonzero;"/>
        <path id="path271" d="M176.783,140.74L177.796,140.993L178.049,142.006L177.289,142.512L176.276,142.259L176.023,141.5L176.783,140.74Z" style="fill:rgb(187,234,249);fill-rule:nonzero;"/>
        <path id="path273" d="M204.136,127.577L204.643,127.577L204.643,128.084L205.149,128.337L204.643,129.096L203.376,129.349L202.87,129.096L202.87,127.831L204.136,127.577Z" style="fill:rgb(187,234,249);fill-rule:nonzero;"/>
        <path id="path275" d="M114.732,145.043L116.251,145.043L116.504,145.803L116.504,148.081L116.251,148.334L114.478,148.334L115.238,147.828L115.998,147.068L115.745,145.55L114.478,145.55L114.732,145.043Z" style="fill:rgb(176,220,248);fill-rule:nonzero;"/>
        <path id="path277" d="M180.835,144.031L182.355,144.031L182.861,144.79L181.848,145.043L181.848,145.55L180.835,145.297L180.835,144.031Z" style="fill:rgb(187,234,249);fill-rule:nonzero;"/>
        <path id="path279" d="M120.304,118.718L121.823,118.971L124.609,120.743L125.116,121.502L124.103,120.996L120.304,118.971L120.304,118.718Z" style="fill:rgb(176,220,248);fill-rule:nonzero;"/>
        <path id="path281" d="M193.752,125.046L195.018,126.059L195.272,127.071L194.005,127.071L194.005,126.565L193.499,126.565L193.752,125.046Z" style="fill:rgb(187,234,249);fill-rule:nonzero;"/>
        <path id="path283" d="M142.845,122.768L144.111,123.021L144.111,123.527L142.591,124.54L142.338,124.287L142.338,123.021L142.845,122.768Z" style="fill:rgb(187,234,249);fill-rule:nonzero;"/>
        <path id="path285" d="M190.206,118.718L192.486,118.971L192.232,119.73L190.46,119.73L189.953,119.477L190.206,118.718Z" style="fill:rgb(186,233,248);fill-rule:nonzero;"/>
        <path id="path287" d="M165.132,120.237L165.639,120.237L165.386,121.502L163.613,121.755L164.626,120.49L165.132,120.237Z" style="fill:rgb(187,234,249);fill-rule:nonzero;"/>
        <path id="path289" d="M164.373,9.619L164.626,9.619L164.373,11.897L163.866,12.656L163.36,11.391L164.373,9.619Z" style="fill:rgb(76,100,179);fill-rule:nonzero;"/>
    </g>
</svg>
